<?xml version="1.0" encoding="UTF-8"?>
<svg width="32px" height="32px" viewBox="0 0 32 32" version="1.1" xmlns="http://www.w3.org/2000/svg" xmlns:xlink="http://www.w3.org/1999/xlink">
    <!-- Generator: Sketch 58 (84663) - https://sketch.com -->
    <title>icons/ orange/ ico_5indywidualne</title>
    <desc>Created with Sketch.</desc>
    <defs>
        <linearGradient x1="99.8812289%" y1="6.15907618%" x2="0%" y2="93.9453125%" id="linearGradient-1">
            <stop stop-color="#E04500" offset="0%"></stop>
            <stop stop-color="#E66329" offset="100%"></stop>
        </linearGradient>
    </defs>
    <g id="icons/-orange/-ico_5indywidualne" stroke="none" stroke-width="1" fill="none" fill-rule="evenodd">
        <path d="M20.5503872,5.68253181 C22.853532,5.68253181 24.7268688,7.6424191 24.7268688,10.0512673 L24.4620011,13.2696148 L24.461,13.275 L24.4563294,13.4518192 C24.3865342,14.671384 23.8125484,16.0793834 22.9488771,17.1308406 L23.7444505,17.12925 C24.8892493,17.12925 26.1459617,17.8070092 26.4814857,18.8339626 L29.4439212,17.6261437 C30.3736668,17.2352381 31.4563135,17.669313 31.852712,18.5934343 C32.044741,19.0412044 32.0492559,19.5360142 31.8647515,19.9873569 C31.7512732,20.2653193 31.5745587,20.5059691 31.3498463,20.6942334 C31.5979835,20.9495099 31.7700256,21.2768971 31.8337499,21.6367227 C31.9189289,22.116051 31.809972,22.5989521 31.5273462,22.997003 C31.2450213,23.3953517 30.822437,23.6606196 30.3378496,23.7448743 L24.52,25.033 L23.1930442,25.8777366 C21.4069934,27.2820793 19.1691626,28.0555545 16.8873878,28.0555545 L12.8914979,28.0555545 C12.8532726,28.0555545 12.8150474,28.0516842 12.7774242,28.0433479 L9.173,27.25 L9.53098927,27.7411627 C9.70104641,27.974277 9.64777191,28.2993868 9.41209987,28.4675982 L5.99891878,30.9020503 C5.90892395,30.96606 5.80086996,31 5.69131107,31 C5.66331939,31 5.63502667,30.997916 5.60703499,30.9934502 C5.46918345,30.9711212 5.34608012,30.8957982 5.26451298,30.7841534 L0.0995934518,23.6969415 C0.0177252635,23.5852966 -0.0156842002,23.4453685 0.00688975262,23.3093107 C0.0291626925,23.1732529 0.105312205,23.0514856 0.218482936,22.970506 L3.63166394,20.5366493 C3.867938,20.3705218 4.19631373,20.4217295 4.36606975,20.6545462 L4.466,20.791 L11.5286333,15.6692337 C11.6186281,15.6037354 11.727585,15.5686045 11.8395518,15.5686045 L14.4990176,15.5686871 C14.1518842,14.7936284 13.9547591,13.9859696 13.9439164,13.2673472 L13.6824877,10.0938412 C13.6806831,7.6424191 15.5540199,5.68253181 17.8568637,5.68253181 L20.5503872,5.68253181 Z M3.82038217,21.6849532 L1.26049638,23.510569 L5.81050152,29.7531509 L8.37038731,27.9275351 L3.82038217,21.6849532 Z M6.05339723,26.4946113 C6.63430014,26.4946113 7.10534327,26.9605422 7.10534327,27.5354386 C7.10534327,28.1100371 6.63430014,28.5759681 6.05339723,28.5759681 C5.47249431,28.5759681 5.00145118,28.1100371 5.00145118,27.5354386 C5.00145118,26.9605422 5.47249431,26.4946113 6.05339723,26.4946113 Z M17.5591885,16.609134 L12.0117158,16.609134 L5.081,21.636 L8.24923067,25.9824851 L8.27136294,25.9867019 L12.9492872,27.0150249 L16.8873878,27.0150249 C18.9401122,27.0150249 20.9537085,26.3162773 22.5570608,25.0476947 C22.5712072,25.0363814 22.5859555,25.0262589 22.6010047,25.0167318 L23.5101734,24.4371298 C23.5695375,24.2760066 23.7081071,24.14727 23.8898268,24.1071988 L24.105,24.059 L30.3866093,20.0647639 C30.4118921,20.0483893 30.4383789,20.0346943 30.4657686,20.0230832 C30.6599045,19.9418058 30.8100966,19.7902665 30.8892559,19.5973443 C30.9684152,19.4038267 30.9663083,19.191255 30.8841391,18.9998213 C30.714082,18.6032591 30.2499617,18.4177798 29.8496503,18.5859913 L22.0342482,21.7730782 C21.9707401,21.7989798 21.9024163,21.8120795 21.8337915,21.8120795 L11.8395518,21.8120795 C11.6499306,21.8120795 11.4750578,21.7114503 11.3817522,21.5483 C11.2884465,21.384852 11.2911553,21.1844868 11.3886749,21.024016 L12.9667443,18.4225433 C13.0615549,18.2662406 13.2328159,18.1700772 13.4176214,18.1700772 L15.5218143,18.1700772 C16.5003198,18.1700772 17.3250214,17.5061628 17.5591885,16.609134 Z M30.4221379,21.279181 L27.092,23.398 L30.1322761,22.7245896 C30.3640353,22.6840998 30.5452289,22.5700732 30.6662253,22.39948 C30.7872216,22.2288867 30.8338745,22.0219717 30.7974551,21.8165453 C30.7575745,21.5907065 30.6179962,21.3946769 30.4221379,21.279181 Z M23.7444505,18.1697795 L21.6045385,18.1699498 C20.908261,18.5052248 20.0792679,18.6901931 19.203776,18.6901931 C18.6478573,18.6901931 18.088112,18.6114156 17.5725084,18.4612415 C17.0210165,18.9277293 16.3040681,19.2109045 15.5215134,19.2109045 L13.7155975,19.2109045 L12.7686956,20.7718476 L21.7296504,20.7718476 L25.5004534,19.2342181 C25.3801488,18.677821 24.5693478,18.1697795 23.7444505,18.1697795 Z M20.4763447,10.8571939 C19.460517,11.1123395 18.4106779,11.3764166 17.4592612,11.3764166 C16.2754833,11.3764166 15.4784724,10.9551436 15.0014096,10.6654626 C14.9977978,10.7818709 14.9956909,10.9268603 14.9956909,11.1081714 L14.9956909,13.2050096 C14.9956909,13.9146954 15.245557,14.7864624 15.6695617,15.5693284 L18.151529,15.5686045 C18.4419804,15.5686045 18.6776525,15.8014211 18.6776525,16.0890181 C18.6776525,16.6228517 18.5414909,17.1258201 18.3017165,17.565728 C18.5951234,17.6210286 18.8995653,17.6496636 19.2034749,17.6496636 C20.3956805,17.6496636 21.4987941,17.2227338 22.082105,16.5352996 C22.8773099,15.5974833 23.4115601,14.2589366 23.4115601,13.2050096 L23.4115601,11.1081714 C23.4115601,10.8348649 23.3549747,10.6523629 23.2436098,10.5672152 C22.8472113,10.2617549 21.587585,10.5782308 20.4763447,10.8571939 Z M20.5506883,6.72306138 L17.8568637,6.72306138 C16.3394601,6.72306138 15.0714172,7.88127466 14.7905785,9.41131732 C15.0108955,9.44207494 15.2193544,9.5725747 15.4116535,9.69191985 C15.8228003,9.94855407 16.4443364,10.3358871 17.4592612,10.3358871 C18.278846,10.3358871 19.2642741,10.0878868 20.2171957,9.84852033 C21.6137486,9.49783946 22.8365714,9.18999734 23.6513851,9.59667514 C23.455094,7.99329728 22.1395025,6.72306138 20.5506883,6.72306138 Z M19.203776,1 C19.4942274,1 19.7295985,1.23251889 19.7295985,1.52011586 L19.7295985,3.60147268 C19.7295985,3.88906973 19.4942274,4.12158862 19.203776,4.12158862 C18.9130235,4.12158862 18.6776525,3.88906973 18.6776525,3.60147268 L18.6776525,1.52011586 C18.6776525,1.23251889 18.9130235,1 19.203776,1 Z M23.5205169,1.41234145 C23.7260904,1.61568386 23.7260904,1.94496156 23.5205169,2.14830397 L21.6796867,3.96915625 C21.5767495,4.07097627 21.4425097,4.12158862 21.307668,4.12158862 C21.1731272,4.12158862 21.0385865,4.07097627 20.9359503,3.96915625 C20.7303769,3.76611153 20.7303769,3.43683384 20.9359503,3.23349142 L22.7767806,1.41234145 C22.982354,1.20929681 23.3152445,1.20929681 23.5205169,1.41234145 Z M15.8935321,1.67254822 L17.4716016,3.23349142 C17.676874,3.43683384 17.676874,3.76611153 17.4716016,3.96915625 C17.3686644,4.07097627 17.2341237,4.12158862 17.0995829,4.12158862 C16.9650422,4.12158862 16.8305015,4.07097627 16.7278652,3.96915625 L15.1497957,2.40821305 C14.9442223,2.20516841 14.9442223,1.87589064 15.1497957,1.67254822 C15.3550681,1.46950358 15.6879586,1.46950358 15.8935321,1.67254822 Z" id="Combined-Shape" fill="url(#linearGradient-1)" fill-rule="nonzero"></path>
    </g>
</svg>