<?xml version="1.0" encoding="UTF-8"?>
<svg width="32px" height="32px" viewBox="0 0 32 32" version="1.1" xmlns="http://www.w3.org/2000/svg" xmlns:xlink="http://www.w3.org/1999/xlink">
    <!-- Generator: Sketch 58 (84663) - https://sketch.com -->
    <title>icons/ orange/ ico_1cieciestali</title>
    <desc>Created with Sketch.</desc>
    <defs>
        <linearGradient x1="99.8812289%" y1="17.070595%" x2="0%" y2="83.0078125%" id="linearGradient-1">
            <stop stop-color="#E04500" offset="0%"></stop>
            <stop stop-color="#E66329" offset="100%"></stop>
        </linearGradient>
    </defs>
    <g id="icons/-orange/-ico_1cieciestali" stroke="none" stroke-width="1" fill="none" fill-rule="evenodd">
        <path d="M19.0058708,3 C20.0935577,3 20.9784736,3.89702453 20.9784736,4.99959471 C20.9784736,6.05042934 20.174591,6.91450817 19.1574795,6.99334933 L19.1574795,6.99334933 L19.7570881,8.61416367 C21.9238826,8.77267123 24.0045714,9.61243753 25.6838513,11.0195809 C27.5314599,12.567775 28.8102074,14.7246712 29.2845088,17.0929531 C29.3125636,17.2329247 29.2770568,17.3783555 29.1878826,17.4889363 C29.0986458,17.5995805 28.9651977,17.663758 28.8242348,17.663758 L28.8242348,17.663758 L28.5103718,17.663758 L28.2942622,18.3464768 L28.6374951,18.9934568 C28.7122035,19.1341901 28.7122035,19.3036161 28.6374951,19.444413 L28.6374951,19.444413 L28.2941996,20.0915834 L28.5156321,20.7910607 C28.5639139,20.9436012 28.5332916,21.110488 28.4341605,21.2352246 L28.4341605,21.2352246 L27.993362,21.7898424 L29.5577299,21.7898424 L29.5577299,18.7111013 C29.5577299,18.448107 29.7680157,18.2350073 30.0273973,18.2350073 C30.2867789,18.2350073 30.4970646,18.448107 30.4970646,18.7111013 L30.4970646,18.7111013 L30.4970646,21.7898424 L31.5303327,21.7898424 C31.7897143,21.7898424 32,22.0030055 32,22.2660633 C32,22.5289941 31.7897143,22.7421573 31.5303327,22.7421573 L31.5303327,22.7421573 L28.0494716,22.7421573 C28.0231076,22.8246802 27.9754521,22.90003 27.9083209,22.9581135 L27.9083209,22.9581135 L27.3569315,23.4350962 L27.3125949,24.1684079 C27.3029511,24.3282485 27.2147162,24.4724097 27.0776986,24.5521396 L27.0776986,24.5521396 L26.4492838,24.9179702 L26.2731272,25.6303973 C26.2347397,25.7856039 26.1219569,25.9109118 25.9729785,25.963917 L25.9729785,25.963917 L25.2893307,26.2069153 L24.9878043,26.874653 C24.9221135,27.0202108 24.7885401,27.1225393 24.6324853,27.1470422 L24.6324853,27.1470422 L23.9164618,27.25921 L23.4992094,27.8596597 C23.4082192,27.9906173 23.2589276,28.0664114 23.1003053,28.0613331 L23.1003053,28.0613331 L22.3762035,28.0379728 L21.8565636,28.5500595 C21.7432172,28.6617194 21.58209,28.7081227 21.4276634,28.6735265 L21.4276634,28.6735265 L20.7200939,28.514765 L20.1159765,28.9207145 C20.0378239,28.9732118 19.9473973,29 19.856407,29 C19.7940978,29 19.7315382,28.9874311 19.6724853,28.961976 L19.6724853,28.961976 L19.0058082,28.6742882 L18.3388806,28.961976 C18.1935969,29.0246299 18.0270215,29.009141 17.8954521,28.9207145 L17.8954521,28.9207145 L17.2913346,28.5147015 L16.5835773,28.6733995 C16.4293386,28.7079957 16.2680861,28.6615924 16.1547397,28.5499325 L16.1547397,28.5499325 L15.6349119,28.0376554 L14.9103092,28.0608888 C14.7517495,28.0659036 14.6024579,27.9901729 14.5114677,27.8592153 L14.5114677,27.8592153 L14.0941526,27.2586387 L13.3779413,27.146217 C13.2218865,27.121714 13.0883757,27.0193856 13.0226849,26.8738278 L13.0226849,26.8738278 L12.7212211,26.2060266 L12.037636,25.9629013 C11.8886575,25.9098962 11.7759374,25.7845882 11.7375499,25.6293181 L11.7375499,25.6293181 L11.5615186,24.9168911 L10.9332916,24.5511874 C10.7963366,24.4714576 10.7080391,24.3271693 10.6984579,24.1673287 L10.6984579,24.1673287 L10.6543092,23.4342075 L10.1032329,22.9576057 C10.036227,22.8995857 9.98850881,22.8244898 9.96214481,22.7420303 L9.96214481,22.7420303 L6.481409,22.7420303 C6.2220274,22.7420303 6.01174168,22.5288672 6.01174168,22.2659363 C6.01174168,22.002942 6.2220274,21.7898424 6.481409,21.7898424 L6.481409,21.7898424 L10.0185049,21.7898424 L9.57751859,21.2350976 C9.47838748,21.1102975 9.44776517,20.9434107 9.49604697,20.7908702 L9.49604697,20.7908702 L9.71747945,20.091393 L9.37424658,19.444413 C9.33178865,19.3644292 9.31431703,19.2751774 9.3201409,19.1871953 L9.3201409,19.1871953 L6.87380039,19.1871953 C6.67729159,19.776917 6.12671624,20.2028624 5.47945205,20.2028624 L5.47945205,20.2028624 L1.47162427,20.2028624 C0.660164384,20.2028624 0,19.5336647 0,18.7111013 L0,18.7111013 L0,9.5700969 C0,8.74753347 0.660164384,8.07833577 1.47162427,8.07833577 L1.47162427,8.07833577 L5.47945205,8.07833577 C5.8402818,8.07833577 6.17105284,8.21088033 6.42730333,8.43020096 C9.0262544,5.88468516 13.2433659,3 19.0058708,3 Z M26.711045,22.7420938 L11.3013855,22.7420938 L11.4159217,22.8411848 C11.5129237,22.9250408 11.5721018,23.0453339 11.5798669,23.1743871 L11.5798669,23.1743871 L11.6207593,23.8532971 L12.2027084,24.1920856 C12.313362,24.256517 12.3933933,24.3637968 12.4243914,24.4892952 L12.4243914,24.4892952 L12.5874599,25.1492884 L13.2208845,25.3745761 C13.3413072,25.4174246 13.4393738,25.5080728 13.4924775,25.6256998 L13.4924775,25.6256998 L13.771773,26.244495 L14.4352564,26.3486009 C14.5613151,26.3683429 14.6739726,26.4392492 14.7474286,26.5449421 L14.7474286,26.5449421 L15.1338708,27.1010833 L15.804681,27.0796273 C15.9312407,27.0755012 16.055546,27.1240628 16.1469119,27.2140763 L16.1469119,27.2140763 L16.6281018,27.6882659 L17.283319,27.5413115 C17.4077495,27.5134442 17.5380665,27.5379471 17.644274,27.6093612 L17.644274,27.6093612 L18.2039295,27.985412 L18.822137,27.7187994 C18.9396164,27.6680795 19.0724384,27.6680795 19.1899804,27.7187994 L19.1899804,27.7187994 L19.8078748,27.985412 L20.3675303,27.6093612 C20.4738004,27.5379471 20.60418,27.5134442 20.7285479,27.5413115 L20.7285479,27.5413115 L21.3835147,27.6882659 L21.8645793,27.2142032 C21.9560078,27.1241262 22.0796243,27.0756281 22.2069354,27.0797543 L22.2069354,27.0797543 L22.8773072,27.1014007 L23.2636869,26.5453864 C23.3371429,26.4396935 23.449863,26.3687873 23.5759217,26.3490452 L23.5759217,26.3490452 L24.2391546,26.2451298 L24.5185127,25.6264615 C24.5716164,25.5088346 24.669683,25.4181228 24.7901057,25.3753378 L24.7901057,25.3753378 L25.423593,25.1501771 L25.5867867,24.4901204 C25.6177847,24.3646855 25.697816,24.2574057 25.8084697,24.1929743 L25.8084697,24.1929743 L26.390544,23.8541224 L26.4315616,23.1750219 C26.4393268,23.0460322 26.4985049,22.9258026 26.5954442,22.8419466 L26.5954442,22.8419466 L26.711045,22.7420938 Z M22.1723679,14.6166296 L15.8391859,14.6166296 C14.8944658,15.2884934 14.1681722,16.2528059 13.7861761,17.3464255 C13.7197965,17.5365457 13.5423875,17.6636311 13.3434364,17.6636311 L13.3434364,17.6636311 L10.4878591,17.6636311 L10.6728454,18.2479571 C10.7117965,18.3711067 10.6997104,18.5050478 10.6392798,18.6189295 L10.6392798,18.6189295 L10.3210333,19.2188714 L10.6392798,19.8186228 C10.6997104,19.9325045 10.7118591,20.0664456 10.6728454,20.1895953 L10.6728454,20.1895953 L10.4677573,20.837464 L10.8887671,21.3670709 C10.9687358,21.4676854 11.0049315,21.5968656 10.9890881,21.7250936 L10.9890881,21.7250936 L10.9810724,21.7899058 L27.0303562,21.7899058 L27.0224031,21.7253475 C27.0066223,21.597183 27.042818,21.4680028 27.1227241,21.3674518 L27.1227241,21.3674518 L27.5437965,20.8376544 L27.3387084,20.1897857 C27.2997573,20.0666361 27.3118434,19.932695 27.372274,19.8188133 L27.372274,19.8188133 L27.6905205,19.2188714 L27.372274,18.6191199 C27.3118434,18.5052383 27.2996947,18.3712971 27.3387084,18.2481475 L27.3387084,18.2481475 L27.5237573,17.6636311 L24.6681174,17.6636311 C24.4691663,17.6636311 24.2917573,17.5365457 24.2253777,17.3464255 C23.8434442,16.2528059 23.1170881,15.2884299 22.1723679,14.6166296 L22.1723679,14.6166296 Z M19.0058708,17.2193402 C20.0935577,17.2193402 20.9784736,18.1163647 20.9784736,19.2189349 C20.9784736,20.321505 20.0935577,21.2185296 19.0058708,21.2185296 C17.918184,21.2185296 17.0332681,20.321505 17.0332681,19.2189349 C17.0332681,18.1163647 17.918184,17.2193402 19.0058708,17.2193402 Z M19.0058708,18.1715281 C18.4361331,18.1715281 17.9726027,18.6414011 17.9726027,19.2189349 C17.9726027,19.7964686 18.4361331,20.2663416 19.0058708,20.2663416 C19.5756086,20.2663416 20.0391389,19.7964686 20.0391389,19.2189349 C20.0391389,18.6413377 19.5756086,18.1715281 19.0058708,18.1715281 Z M4.00782779,9.03052373 L1.47162427,9.03052373 C1.1781135,9.03052373 0.939334638,9.27250643 0.939334638,9.5700969 L0.939334638,9.5700969 L0.939334638,18.7111013 C0.939334638,19.0086283 1.1781135,19.2506745 1.47162427,19.2506745 L1.47162427,19.2506745 L4.00782779,19.2506745 L4.00782779,11.6014312 C4.00782779,11.3384369 4.2181135,11.1253372 4.47749511,11.1253372 C4.73687671,11.1253372 4.94716243,11.3384369 4.94716243,11.6014312 L4.94716243,11.6014312 L4.94716243,19.2506745 L5.47945205,19.2506745 C5.77296282,19.2506745 6.01174168,19.0086283 6.01174168,18.7111013 L6.01174168,18.7111013 L6.01174168,9.5700969 C6.01174168,9.27256991 5.77296282,9.03052373 5.47945205,9.03052373 L5.47945205,9.03052373 L4.94716243,9.03052373 L4.94716243,10.0779305 C4.94716243,10.3408613 4.73687671,10.5540245 4.47749511,10.5540245 C4.2181135,10.5540245 4.00782779,10.3408613 4.00782779,10.0779305 L4.00782779,10.0779305 L4.00782779,9.03052373 Z M9.32533855,15.1245267 L6.95107632,15.1245267 L6.95107632,18.2350073 L9.68228571,18.2350073 L9.50136986,17.6636945 L9.18744423,17.6636945 C9.04648141,17.6636945 8.91303327,17.5995171 8.82379648,17.4888728 C8.73462231,17.3782921 8.69911546,17.2329247 8.72717025,17.0928896 C8.86268493,16.4163918 9.06407828,15.7572238 9.32533855,15.1245267 L9.32533855,15.1245267 Z M19.0058708,9.5383573 C16.7901057,9.5383573 14.6310137,10.325055 12.9263718,11.7534639 C11.3935656,13.0378385 10.2908493,14.7815486 9.78035225,16.7115066 L9.78035225,16.7115066 L13.0210568,16.7115066 C13.5117025,15.5131463 14.3591076,14.4683422 15.4343327,13.7440446 C15.5113581,13.692182 15.6017847,13.6645051 15.6942779,13.6645051 L15.6942779,13.6645051 L22.3174638,13.6645051 C22.4099569,13.6645051 22.5003836,13.692182 22.577409,13.7440446 C23.6526341,14.4683422 24.5000391,15.5131463 24.9906849,16.7115066 L24.9906849,16.7115066 L28.2313894,16.7115066 C27.7208924,14.781612 26.6181761,13.0378385 25.0853699,11.7534639 C23.380728,10.3249915 21.221636,9.5383573 19.0058708,9.5383573 Z M15.1686888,7.60122613 C10.0619022,9.23207018 7.16593346,13.6559354 7.13650098,13.7016404 C7.0888454,13.7756572 7.02409393,13.8313284 6.95107632,13.867829 L6.95107632,13.867829 L6.95107632,14.1723387 L9.77452838,14.1723387 C10.4136517,12.973788 11.2789667,11.8985139 12.3278278,11.0195174 C13.3393033,10.1719432 14.496501,9.53054936 15.7302857,9.1193946 L15.7302857,9.1193946 Z M19.0058708,3.95225144 C13.4370568,3.95225144 9.37869276,6.81446496 6.92145597,9.27180816 C6.94086888,9.36823306 6.95107632,9.46802235 6.95107632,9.57016038 L6.95107632,9.57016038 L6.95107632,12.3659112 C8.13319765,10.8797997 11.021589,7.77769829 15.3285636,6.55997685 C15.5634599,6.49370457 15.809002,6.62015513 15.894544,6.85140985 L15.894544,6.85140985 L16.6383092,8.86198646 C17.3265284,8.70011451 18.0323444,8.60781575 18.7449237,8.58972418 L18.7449237,8.58972418 L18.0474364,6.70439203 C17.9944579,6.56124644 18.0124932,6.40108842 18.0959687,6.27374915 C18.1794442,6.14640989 18.3181526,6.06744176 18.4688219,6.06147472 L18.4688219,6.06147472 L18.5032016,6.06014166 C18.6653933,6.05366678 18.8330959,6.04700146 19.0058708,6.04700146 C19.5756086,6.04700146 20.0391389,5.57712845 20.0391389,4.99959471 C20.0391389,4.42206097 19.5756086,3.95225144 19.0058708,3.95225144 Z" id="Combined-Shape" fill="url(#linearGradient-1)" fill-rule="nonzero"></path>
    </g>
</svg>