<?xml version="1.0" encoding="UTF-8"?>
<svg width="32px" height="32px" viewBox="0 0 32 32" version="1.1" xmlns="http://www.w3.org/2000/svg" xmlns:xlink="http://www.w3.org/1999/xlink">
    <!-- Generator: Sketch 58 (84663) - https://sketch.com -->
    <title>icons/ black/ ico_saw_black</title>
    <desc>Created with Sketch.</desc>
    <g id="icons/-black/-ico_saw_black" stroke="none" stroke-width="1" fill="none" fill-rule="evenodd">
        <path d="M31.4666667,26.8666667 C31.7612185,26.8666667 32,27.1054481 32,27.4 C32,27.6945519 31.7612185,27.9333333 31.4666667,27.9333333 L0.533333333,27.9333333 C0.238781467,27.9333333 0,27.6945519 0,27.4 C0,27.1054481 0.238781467,26.8666667 0.533333333,26.8666667 L31.4666667,26.8666667 Z M19.7333333,5 C23.5335357,5.00504017 26.6228745,8.06561105 26.6634667,11.8656 C29.8569983,12.995355 31.9940303,16.0125297 32,19.4 C32,19.6945519 31.7612185,19.9333333 31.4666667,19.9333333 L31.4666667,19.9333333 L30.3728,19.9333333 C30.326164,20.4795486 30.208736,21.0173864 30.0234667,21.5333333 L30.0234667,21.5333333 L31.4666667,21.5333333 C31.7612185,21.5333333 32,21.7721148 32,22.0666667 C32,22.3612185 31.7612185,22.6 31.4666667,22.6 L31.4666667,22.6 L29.5301333,22.6 C29.0280302,23.4576357 28.3346334,24.1877193 27.504,24.7333333 L27.504,24.7333333 L31.4666667,24.7333333 C31.7612185,24.7333333 32,24.9721148 32,25.2666667 C32,25.5612185 31.7612185,25.8 31.4666667,25.8 L31.4666667,25.8 L16.5333333,25.8 C16.2387815,25.8 16,25.5612185 16,25.2666667 C16,24.9721148 16.2387815,24.7333333 16.5333333,24.7333333 L16.5333333,24.7333333 L20.4965333,24.7333333 C19.6657058,24.1877828 18.9721218,23.4576943 18.4698667,22.6 L18.4698667,22.6 L0.533333333,22.6 C0.238781467,22.6 0,22.3612185 0,22.0666667 C0,21.7721148 0.238781467,21.5333333 0.533333333,21.5333333 L0.533333333,21.5333333 L17.9765333,21.5333333 C17.791264,21.0173864 17.673836,20.4795486 17.6272,19.9333333 L17.6272,19.9333333 L13.3333333,19.9333333 C13.0387815,19.9333333 12.8,19.6945519 12.8,19.4 L12.8,19.4 L12.8,18.8666667 L9.06666667,18.8666667 C7.00577832,18.8643154 5.33568461,17.1942217 5.33333333,15.1333333 L5.33333333,15.1333333 L5.33333333,10.8666667 C5.33320147,9.86233588 5.73905451,8.90059882 6.45866667,8.2 L6.45866667,8.2 L2.66666667,8.2 C2.3721148,8.2 2.13333333,7.96121853 2.13333333,7.66666667 L2.13333333,7.66666667 L2.13333333,6.6 C2.13333333,5.7163444 2.84967773,5 3.73333333,5 L3.73333333,5 Z M24,15.6666667 C21.9381369,15.6666667 20.2666667,17.3381369 20.2666667,19.4 C20.2666667,19.6945519 20.0278852,19.9333333 19.7333333,19.9333333 L19.7333333,19.9333333 L18.6938667,19.9333333 C18.9708207,22.6568622 21.2624279,24.729881 24,24.7333333 C26.7375721,24.729881 29.0291793,22.6568622 29.3061333,19.9333333 L29.3061333,19.9333333 L28.2666667,19.9333333 C27.9721148,19.9333333 27.7333333,19.6945519 27.7333333,19.4 C27.7333333,17.3381369 26.0618631,15.6666667 24,15.6666667 Z M24,17.2666667 C25.4727593,17.2666667 26.6666667,18.460574 26.6666667,19.9333333 C26.6649034,21.4053617 25.4720283,22.5982367 24,22.6 C22.5272407,22.6 21.3333333,21.4060927 21.3333333,19.9333333 C21.3333333,18.460574 22.5272407,17.2666667 24,17.2666667 Z M24,18.3333333 C23.3528604,18.3333333 22.7694423,18.7231608 22.5217927,19.3210398 C22.2741431,19.9189189 22.4110324,20.6071074 22.8686292,21.0647042 C23.3262259,21.522301 24.0144145,21.6591902 24.6122935,21.4115406 C25.2101725,21.163891 25.6,20.5804729 25.6,19.9333333 C25.6,19.0496777 24.8836556,18.3333333 24,18.3333333 Z M24,18.8666667 C24.5891037,18.8666667 25.0666667,19.3442296 25.0666667,19.9333333 C25.0666667,20.5224371 24.5891037,21 24,21 C23.4108963,21 22.9333333,20.5224371 22.9333333,19.9333333 C22.9333333,19.3442296 23.4108963,18.8666667 24,18.8666667 Z M14.9333333,6.06666667 L13.8666667,6.06666667 L13.8666667,18.8666667 L16.0282667,18.8666667 C16.0508197,18.4703375 16.1025149,18.076206 16.1829333,17.6874667 C16.9936565,14.0189973 20.2430185,11.4054523 24,11.4 C24.5312908,11.4007303 25.0611904,11.4543277 25.5818667,11.56 C25.3956299,8.67869125 23.1416328,6.36068841 20.2666667,6.09386667 L20.2666667,6.09386667 L20.2666667,8.73333333 C20.2666667,9.0278852 20.0278852,9.26666667 19.7333333,9.26666667 C19.4387815,9.26666667 19.2,9.0278852 19.2,8.73333333 L19.2,8.73333333 L19.2,6.06666667 L18.1333333,6.06666667 L18.1333333,8.73333333 C18.1333333,9.0278852 17.8945519,9.26666667 17.6,9.26666667 C17.3054481,9.26666667 17.0666667,9.0278852 17.0666667,8.73333333 L17.0666667,8.73333333 L17.0666667,6.06666667 L16,6.06666667 L16,8.73333333 C16,9.0278852 15.7612185,9.26666667 15.4666667,9.26666667 C15.1721148,9.26666667 14.9333333,9.0278852 14.9333333,8.73333333 L14.9333333,8.73333333 L14.9333333,6.06666667 Z M24.4810663,12.4729698 C21.0471834,12.2338758 17.9578363,14.550303 17.2250667,17.9136 C17.1573531,18.2277691 17.111201,18.5462007 17.0869333,18.8666667 L17.0869333,18.8666667 L19.2298667,18.8666667 C19.5020913,16.4377897 21.5559154,14.6012955 24,14.6012955 C26.4440846,14.6012955 28.4979087,16.4377897 28.7701333,18.8666667 L28.7701333,18.8666667 L30.9130667,18.8666667 C30.6534667,15.4342731 27.9149493,12.7120639 24.4810663,12.4729698 Z M12.8,8.2 L9.06666667,8.2 C7.79994622,8.20159909 6.70849742,9.09257771 6.45333333,10.3333333 L6.45333333,10.3333333 L6.93333333,10.3333333 C7.2278852,10.3333333 7.46666667,10.5721148 7.46666667,10.8666667 C7.46666667,11.1612185 7.2278852,11.4 6.93333333,11.4 L6.93333333,11.4 L6.4,11.4 L6.4,11.9333333 L6.93333333,11.9333333 C7.2278852,11.9333333 7.46666667,12.1721148 7.46666667,12.4666667 C7.46666667,12.7612185 7.2278852,13 6.93333333,13 L6.93333333,13 L6.4,13 L6.4,13.5333333 L6.93333333,13.5333333 C7.2278852,13.5333333 7.46666667,13.7721148 7.46666667,14.0666667 C7.46666667,14.3612185 7.2278852,14.6 6.93333333,14.6 L6.93333333,14.6 L6.4,14.6 L6.4,15.1333333 L6.93333333,15.1333333 C7.2278852,15.1333333 7.46666667,15.3721148 7.46666667,15.6666667 C7.46666667,15.9612185 7.2278852,16.2 6.93333333,16.2 L6.93333333,16.2 L6.62613333,16.2 C7.04975381,17.1706389 8.0076141,17.7986068 9.06666667,17.8 L9.06666667,17.8 L12.8,17.8 L12.8,16.7333333 L10.1333333,16.7333333 C9.24967773,16.7333333 8.53333333,16.0169889 8.53333333,15.1333333 L8.53333333,15.1333333 L8.53333333,10.8666667 C8.53333333,9.98301107 9.24967773,9.26666667 10.1333333,9.26666667 L10.1333333,9.26666667 L12.8,9.26666667 L12.8,8.2 Z M12.8,10.3333333 L12.1178667,10.3333333 L11.1728,13.1685333 C11.1002283,13.3864228 10.896324,13.5333886 10.6666667,13.5333333 L10.6666667,13.5333333 L9.6,13.5333333 L9.6,15.1333333 C9.6,15.4278852 9.83878147,15.6666667 10.1333333,15.6666667 L10.1333333,15.6666667 L12.8,15.6666667 L12.8,10.3333333 Z M10.9930667,10.3333333 L10.1333333,10.3333333 C9.83878147,10.3333333 9.6,10.5721148 9.6,10.8666667 L9.6,10.8666667 L9.6,12.4666667 L10.2821333,12.4666667 L10.9930667,10.3333333 Z M12.8,6.06666667 L3.73333333,6.06666667 C3.43878147,6.06666667 3.2,6.30544813 3.2,6.6 L3.2,6.6 L3.2,7.13333333 L12.8,7.13333333 L12.8,6.06666667 Z" id="Combined-Shape" fill="#000000" fill-rule="nonzero"></path>
    </g>
</svg>