<?xml version="1.0" encoding="UTF-8"?>
<svg width="32px" height="32px" viewBox="0 0 32 32" version="1.1" xmlns="http://www.w3.org/2000/svg" xmlns:xlink="http://www.w3.org/1999/xlink">
    <!-- Generator: Sketch 58 (84663) - https://sketch.com -->
    <title>icons/ orange/ ico_3samolot</title>
    <desc>Created with Sketch.</desc>
    <defs>
        <linearGradient x1="99.8812289%" y1="0.118771115%" x2="0%" y2="100%" id="linearGradient-1">
            <stop stop-color="#E04500" offset="0%"></stop>
            <stop stop-color="#E66329" offset="100%"></stop>
        </linearGradient>
    </defs>
    <g id="icons/-orange/-ico_3samolot" stroke="none" stroke-width="1" fill="none" fill-rule="evenodd">
        <path d="M31.2955653,0.735380086 C32.5501949,1.99049706 32.0999025,4.50877193 30.1759259,7.00219297 C30.1749513,7.00365499 30.1737329,7.00511694 30.1727583,7.00633525 C29.3619937,8.05296731 28.9421285,8.34855077 25.4081037,11.9136078 L25.1622807,12.1617934 L25.532651,14.4376218 L26.5772417,13.3932749 C27.3087232,12.6617934 28.4922027,12.6617934 29.2234405,13.3932749 C29.9142842,14.0838884 29.9526644,15.1785423 29.3385811,15.9142545 L29.2234405,16.0402047 L26.2738791,18.9897661 L27.95346,29.3053119 C28.0614035,29.9722223 27.840887,30.6547271 27.3640351,31.1315789 C26.4874566,32.0081575 25.0606693,31.934801 24.2744288,31.0093887 L24.1712963,30.877924 L16.7266082,20.5974659 L14.8016569,22.5224172 C14.215562,23.1082954 13.4340541,23.7218973 12.4715083,24.3524415 L12.1020955,24.5896686 L13.5116959,29.3837719 C13.7197855,30.0913743 13.5250975,30.8555068 13.003655,31.3776803 C12.1534134,32.2279219 10.764333,32.1449487 10.017573,31.2300519 L9.91983432,31.1001462 L7.19883041,27.1695906 C5.68884017,27.8538012 4.59697853,28.2699805 4.54653998,28.2889863 C4.31822609,28.375731 4.05847953,28.3213938 3.88401559,28.1469298 C3.71052632,27.9734406 3.65472711,27.7139376 3.74195905,27.4844055 C3.76029193,27.4363687 4.13843086,26.4437306 4.7654493,25.0449162 L4.86135479,24.832115 L0.931042869,22.1113548 C-0.10258283,21.3954679 -0.237085754,19.9176414 0.652777793,19.0277777 C1.13523392,18.5462213 1.82344112,18.3432904 2.48301279,18.4783963 L2.64717349,18.5192495 L7.44152047,19.9290936 C8.07569851,18.9221627 8.69466704,18.0935101 9.28764469,17.4585379 L9.50877193,17.2295322 L11.4334795,15.3045809 L1.15302144,7.85964912 C0.106481466,7.10233918 -0.0180311579,5.58455167 0.899366487,4.66715396 C1.33670402,4.22981644 1.94623301,4.00807648 2.55828719,4.05748853 L2.7251462,4.07772906 L13.041423,5.75730994 L15.9912281,2.80750484 C16.7224659,2.07602339 17.9066764,2.07626704 18.6379142,2.80750484 C19.328988,3.49834849 19.3671636,4.5923632 18.7530569,5.32800364 L18.6379142,5.45394738 L17.5935673,6.49829433 L19.8693957,6.86890841 C23.665692,3.11184212 23.9573587,2.68469782 25.0277777,1.85599414 C27.5221735,-0.0689571306 30.040692,-0.518762168 31.2955653,0.735380086 Z M10.996345,25.2517056 C10.3546296,25.6177875 9.65833334,25.9873002 8.91344446,26.357 L8.34576025,26.6342593 L10.9454191,30.3898635 C11.2205166,30.7870371 11.784844,30.8323587 12.1211013,30.4961014 C12.295078,30.3219116 12.3737245,30.0770171 12.3374528,29.8376494 L12.3148148,29.7356238 L10.996345,25.2517056 Z M24.0752924,13.2487817 L17.619883,19.704191 L25.1820176,30.1464425 C25.4922027,30.5752924 26.1108675,30.6206141 26.4819688,30.2495127 C26.6484266,30.0830549 26.7382643,29.8548355 26.7327616,29.6219361 L26.7219786,29.5053606 L24.0752924,13.2487817 Z M25.8848218,2.94683272 L25.6503411,2.95540934 C24.7256335,3.69493177 25.6284113,2.91081868 10.3910819,18.1115984 C9.72222222,18.7802144 9.00121831,19.7512183 8.24805065,20.9973197 C7.21832359,22.6998051 6.24561404,24.7239279 5.46174465,26.5694444 C7.25852825,25.8062865 9.25048733,24.8516082 10.9337232,23.8435673 C12.2285575,23.0679825 13.2331871,22.3267544 13.9195907,21.6401072 C29.1094054,6.41349901 28.3345516,7.3075049 29.0757797,6.38060426 C29.1413255,5.35501948 28.836501,4.45175442 28.207846,3.82309938 C27.6759072,3.29116062 26.9475285,2.99125115 26.1145285,2.95127093 L25.8848218,2.94683272 Z M1.53484407,19.9103314 C1.22175365,20.2231969 1.24168514,20.7274877 1.55650038,21.0178664 L1.64132554,21.08577 L5.39668616,23.6854288 C5.76588691,22.9172027 6.13586743,22.1957602 6.50388304,21.5267154 L6.77948345,21.0348441 L2.29532164,19.7161306 C2.02558478,19.6366959 1.73416178,19.7112573 1.53484407,19.9103314 Z M27.5459377,14.2031361 L27.4595517,14.2753411 L25.7799707,15.954922 L26.0268032,17.4722222 L28.3413743,15.1578947 C28.585039,14.9139864 28.5852826,14.5192495 28.3413743,14.2753411 C28.1245668,14.0585337 27.7889713,14.0346365 27.5459377,14.2031361 Z M15.9912281,16.039961 C16.2351364,16.2831384 16.2351364,16.6781189 15.9912281,16.9220273 C15.747807,17.1659357 15.3530702,17.1659357 15.1091618,16.9220273 C14.8652534,16.6781189 14.8652534,16.2831384 15.1091618,16.039961 C15.3530702,15.7960526 15.747807,15.7960526 15.9912281,16.039961 Z M19.5199805,12.5112085 C19.7365714,12.7277994 19.760637,13.0639485 19.5921775,13.3069367 L19.5199805,13.3932749 L17.7560916,15.1574074 C17.5121833,15.4008284 17.1174464,15.4010722 16.8737816,15.1574074 C16.6571908,14.9408166 16.6331251,14.6046675 16.8015847,14.3615082 L16.8737816,14.2750975 L18.6379142,12.5112085 C18.8815789,12.2675438 19.2763158,12.2675438 19.5199805,12.5112085 Z M1.78167641,5.5492203 C1.43732192,5.89334983 1.4525647,6.44655235 1.79271622,6.77244333 L1.88450296,6.84892788 L12.3269981,14.4110624 L18.7824074,7.9558967 L2.52509748,5.30896686 C2.25414232,5.26486356 1.97587718,5.35477583 1.78167641,5.5492203 Z M22.1666667,8.98245614 C22.4103314,8.73879142 22.8050682,8.73879142 23.0487329,8.98245614 C23.2923977,9.22612086 23.2923977,9.62110135 23.0487329,9.86476607 L23.0487329,9.86476607 L21.2841131,11.629386 C21.0404484,11.872807 20.6457115,11.872807 20.4018031,11.629386 C20.158382,11.3857213 20.158382,10.9907407 20.4018031,10.747076 L20.4018031,10.747076 Z M16.9597054,3.61754568 L16.8732943,3.68981483 L14.5587232,6.00414228 L16.0760234,6.25121834 L17.755848,4.5716374 C17.9995127,4.32772903 17.9997564,3.9337232 17.755848,3.68981483 C17.5390405,3.47300739 17.2028674,3.44891768 16.9597054,3.61754568 Z M27.289961,1.88791423 C27.9773392,2.087232 28.5903996,2.44152047 29.0901559,2.94103317 C29.5899123,3.44078946 29.9439571,4.05384989 30.1432749,4.74147175 C30.829191,3.38888889 30.9666179,2.17080895 30.413499,1.61744642 C29.712963,0.917397645 28.1927388,1.43006821 27.289961,1.88791423 Z" id="Combined-Shape" fill="url(#linearGradient-1)" fill-rule="nonzero"></path>
    </g>
</svg>