<?xml version="1.0" encoding="UTF-8"?>
<svg width="32px" height="32px" viewBox="0 0 32 32" version="1.1" xmlns="http://www.w3.org/2000/svg" xmlns:xlink="http://www.w3.org/1999/xlink">
    <!-- Generator: Sketch 58 (84663) - https://sketch.com -->
    <title>icons/ orange/ ico_poland</title>
    <desc>Created with Sketch.</desc>
    <defs>
        <linearGradient x1="99.8812289%" y1="0.118771115%" x2="0%" y2="100%" id="linearGradient-1">
            <stop stop-color="#E04500" offset="0%"></stop>
            <stop stop-color="#E66329" offset="100%"></stop>
        </linearGradient>
    </defs>
    <g id="icons/-orange/-ico_poland" stroke="none" stroke-width="1" fill="none" fill-rule="evenodd">
        <path d="M2.54582353,21.6870123 L2.25517934,21.9831583 L2.80146869,22.0412262 C4.30500384,22.8729074 6.27027358,22.5571296 7.18436618,24.8848407 L7.32354811,25.2674803 C7.54146081,25.8267652 8.07605211,26.7919817 8.59913557,26.0982323 C9.8986651,24.3639396 10.5469082,25.7749881 11.6592689,26.4466394 C13.0389412,27.2835536 14.4876247,27.7710952 15.3769887,29.4692769 L15.5061198,29.7332789 C15.6567679,30.0584588 16.0219752,30.3236353 16.25936,29.9829706 C17.1617265,28.6861223 17.6121489,29.7274721 18.0930053,30.5191303 C18.4612561,31.1230358 18.7595087,31.1327138 19.3925348,30.9314119 L19.9243575,30.746594 C21.8177999,30.0653125 23.7364911,29.2163114 25.629132,31.0761443 L25.8064891,31.2585274 C26.3071276,31.7966227 27.2338413,32.3366536 28.2001191,31.7366193 C27.3997063,29.9694215 27.7040457,28.4403018 28.9959668,27.3563688 C31.7684993,25.0452689 33.2034599,22.3876976 30.7215716,18.4506983 C30.0931106,17.4558027 31.488507,16.0583034 30.5389679,15.3034215 C28.9198819,14.0201223 29.7309466,13.4433151 30.7991781,12.7271452 C31.1156912,12.5142297 31.4778551,12.2238906 31.6361117,11.8503208 C32.1793576,10.5321809 29.7659456,3.17692161 28.6642368,2.67173143 L28.4571168,2.5806868 C28.3161062,2.52204545 28.1717141,2.47688158 28.0388192,2.50139911 C24.2820792,3.1586597 20.5142013,1.68547832 16.7538293,2.46747474 L16.2410996,2.58850087 C15.5441623,2.77625354 14.4424534,2.34268036 14.5854929,1.72135451 C15.0631157,-0.354389194 13.9027338,0.114797793 13.222409,0.0546423751 L13.1581408,0.0470652147 C11.879915,-0.138751863 10.6260364,0.238689076 9.47106815,0.949052278 L8.2059318,1.72875636 C6.09408359,3.01906312 3.95440804,4.22020708 1.61606646,4.68474977 C0.346970871,4.93637706 0.471750053,6.3822662 0.529574552,7.0558531 C0.649788642,8.39141335 1.06825541,9.59148197 0.0913257168,10.7025132 C-0.159754345,10.9928524 0.164367189,11.362551 0.343927476,11.649019 C2.18974636,14.6008007 1.87323331,18.322949 2.54582353,21.6870123 Z M3.48282364,21.2665253 L3.4036993,20.81542 L3.34999004,20.4646613 C3.28871621,20.0402163 3.23073846,19.5520799 3.1596942,18.8910645 L3.09825143,18.3088155 C2.72766562,14.7505086 2.37761939,13.0938355 1.31306406,11.316862 L1.12383327,11.0139441 C1.74600008,10.1594926 1.81626419,9.35234426 1.63690716,7.88266504 L1.54360354,7.14641115 L1.51797607,6.87657367 C1.49228349,6.56424133 1.48821558,6.34397375 1.51210405,6.14084747 C1.55213445,5.80046461 1.62012043,5.70341258 1.81055338,5.66565488 C3.94178482,5.24225744 5.55156967,4.49785633 8.51883478,2.70608918 L9.99607914,1.80014772 C10.9569948,1.2091375 11.8963389,0.939578216 12.7914411,1.01154498 L13.0142818,1.03666341 C13.1420196,1.05591864 13.2428806,1.06242676 13.3872616,1.06101057 L13.6891009,1.05183301 C13.6769689,1.17140213 13.6517226,1.31995598 13.6109584,1.49711687 C13.2569353,3.03489924 15.1367353,3.92166482 16.5012225,3.55407638 C17.7479254,3.22378599 19.0260299,3.16478952 20.8199987,3.29821969 L21.6677426,3.37085932 L23.1755327,3.51847536 L23.9365276,3.58533759 C25.7372433,3.73157887 26.8152376,3.7191897 28.0832314,3.5082723 L28.2599617,3.58630102 C28.1745451,3.54871254 28.2234514,3.6008482 28.3020422,3.71711592 C28.4371997,3.91706889 28.5961404,4.20564315 28.7672232,4.56424232 C29.1119661,5.2868429 29.4847441,6.24824413 29.8161976,7.26586904 L29.9671187,7.74411606 L30.1062923,8.21413615 C30.5721608,9.83932127 30.8114459,11.2268995 30.7115528,11.4692817 C30.6740052,11.557791 30.5131871,11.7143262 30.2410223,11.897409 C29.2828212,12.5398103 28.9299128,12.8468479 28.7144854,13.4809153 C28.4168926,14.3568204 28.8126053,15.1561284 29.7472596,15.9474859 L29.9177617,16.0870687 C29.9127645,16.0831123 29.9090219,16.0825773 29.9039315,16.0924636 L29.7079722,16.8146269 L29.6753704,16.9430322 C29.4774895,17.7486277 29.4835452,18.3632783 29.8761233,18.9847556 C31.8148616,22.0601611 31.2327076,24.190029 28.3556751,26.5882369 C27.0335017,27.6975466 26.5249717,29.2017387 26.8609921,30.8506585 C26.7524773,30.7826442 26.6444215,30.6910808 26.5386184,30.5773617 C25.3925963,29.3458974 24.1065434,28.8508319 22.6541543,28.9647902 C21.9582682,29.0193913 21.4056546,29.1594956 20.4357251,29.4995288 L19.1612359,29.9544134 L18.9169454,30.0319397 C18.8845823,30.0426253 18.8734458,30.0487542 18.8827405,30.0545418 L18.9665972,30.0779557 C18.9876198,30.0811999 18.989281,30.0731198 18.9713129,30.0402029 L18.8163452,29.7786099 C18.379525,29.0354292 18.1676945,28.7522035 17.6867731,28.5187535 C17.1207193,28.2439785 16.5818836,28.336277 16.0994292,28.699702 C15.4989831,27.6616381 14.7223333,27.0307725 13.3533699,26.2549751 L12.6051537,25.8398886 C12.4444355,25.74964 12.3069798,25.6699415 12.1779102,25.5916474 C12.0977727,25.5432583 12.0163763,25.48682 11.9207251,25.4133272 L11.3771438,24.965726 C11.234313,24.848995 11.1123346,24.7563334 10.9870991,24.6726316 C10.0615338,24.0540253 9.13218144,24.1324986 8.27515594,24.9544202 L8.24587451,24.8801618 L8.21999381,24.807634 C7.63157717,23.0555468 6.76972456,22.354599 5.02284495,21.7786121 L4.53425472,21.6269267 L4.03344708,21.4740411 L3.72681796,21.3680834 C3.63702714,21.3342838 3.55767545,21.3012175 3.48282364,21.2665253 Z" id="Path" fill="url(#linearGradient-1)" fill-rule="nonzero"></path>
    </g>
</svg>