<?xml version="1.0" encoding="UTF-8"?>
<svg width="32px" height="32px" viewBox="0 0 32 32" version="1.1" xmlns="http://www.w3.org/2000/svg" xmlns:xlink="http://www.w3.org/1999/xlink">
    <!-- Generator: Sketch 58 (84663) - https://sketch.com -->
    <title>icons/ orange/ ico_phone_orange</title>
    <desc>Created with Sketch.</desc>
    <defs>
        <linearGradient x1="99.6942471%" y1="0.118771115%" x2="0.187426978%" y2="100%" id="linearGradient-1">
            <stop stop-color="#E04500" offset="0%"></stop>
            <stop stop-color="#E66329" offset="100%"></stop>
        </linearGradient>
    </defs>
    <g id="icons/-orange/-ico_phone_orange" stroke="none" stroke-width="1" fill="none" fill-rule="evenodd">
        <path d="M8.23954275,2.38715592 L8.37982066,2.5185 L12.3492554,6.4956875 C13.3980793,7.5465 13.4417803,9.22888661 12.4803583,10.3323303 L12.3492554,10.472875 L10.5449669,12.2806875 C9.75539649,13.0717406 9.71603057,14.3275812 10.4265482,15.1650595 L10.5449669,15.2936875 L16.8197739,21.4320625 L16.8208967,21.4331875 L16.9492828,21.5518535 C17.7411871,22.2263706 18.9077895,22.2262741 19.6995927,21.5518375 L19.827961,21.4331875 L21.6323119,19.625375 C22.7293567,18.526125 24.5047641,18.52625 25.6017466,19.625375 L25.6073528,19.6310391 L25.6129123,19.63675 L29.5650058,23.7339375 C30.6530058,24.8309375 30.650885,26.6103125 29.5587057,27.70475 C29.537809,27.7256875 28.1355478,29.0198125 28.1138402,29.039875 C24.2235588,32.9229659 17.9918563,32.979349 14.0314278,29.2377134 L13.81377,29.0259375 L2.96764133,18.3073125 C-0.989692008,14.34225 -0.98825731,7.9276875 2.96701754,3.96475 C2.96720468,3.964525 3.01035041,3.9213025 3.04490442,3.8866795 L3.29383333,3.63725977 C3.44882968,3.48196436 3.66845961,3.26190149 3.87197303,3.05798471 L4.41038596,2.5185 C5.4591501,1.4677474 7.13819991,1.42396604 8.23954275,2.38715592 Z M3.77381676,5.8578125 C1.14841672,9.01762361 1.22866998,13.7047236 4.09067284,16.7742571 L4.29012086,16.981 L15.1362495,27.699625 C18.1223562,30.6915028 22.7688653,30.9192625 26.0186877,28.3937129 L26.2380663,28.21725 L20.9644912,22.933375 C19.4459227,24.2756853 17.1629672,24.2643488 15.6572038,22.9102789 L15.4989162,22.7600625 L9.22298635,16.6205625 C7.77560637,15.1703556 7.6721402,12.8782343 8.91006131,11.3075777 L9.04782846,11.142125 L3.77381676,5.8578125 Z M23.0509386,20.8673638 L22.9554152,20.9510625 L22.2938947,21.613875 L27.6178713,26.94825 L28.2466433,26.3676875 C28.6003275,26.001375 28.5966472,25.4150625 28.23554,25.0531875 C28.228117,25.0458125 24.2812008,20.9539375 24.2739025,20.946375 C23.9386563,20.6149427 23.4163933,20.5882687 23.0509386,20.8673638 Z M16.0324366,0.00125 C24.8240156,0.00125 31.9376842,7.1295 31.9376842,15.9375625 C31.9376842,16.4553125 31.5187524,16.875 31.0020741,16.875 C30.4853957,16.875 30.0664639,16.45525 30.0664639,15.9375625 C30.0664639,8.1840625 23.7708226,1.876125 16.0324366,1.876125 C15.5157583,1.876125 15.0968265,1.456375 15.0968265,0.9386875 C15.0968265,0.421 15.5157583,0.00125 16.0324366,0.00125 Z M16.0324366,3.7509375 C22.7390253,3.7509375 28.195306,9.217875 28.195306,15.9375625 C28.195306,16.4553125 27.7763743,16.875 27.2596959,16.875 C26.7430175,16.875 26.3240858,16.45525 26.3240858,15.9375625 C26.3240858,10.251625 21.7072281,5.6258125 16.0324366,5.6258125 C15.5157583,5.6258125 15.0968265,5.2060625 15.0968265,4.688375 C15.0968265,4.1706875 15.5157583,3.7509375 16.0324366,3.7509375 Z M16.0324366,7.5006875 C20.6754932,7.5006875 24.4528655,11.2854375 24.4528655,15.9375625 C24.4528655,16.4553125 24.0339337,16.875 23.5172554,16.875 C23.000577,16.875 22.5816452,16.45525 22.5816452,15.9375625 C22.5816452,12.31925 19.6436959,9.3755625 16.0324366,9.3755625 C15.5157583,9.3755625 15.0968265,8.9558125 15.0968265,8.438125 C15.0968265,7.9204375 15.5157583,7.5006875 16.0324366,7.5006875 Z M16.0324366,11.250375 C18.6118986,11.250375 20.710425,13.3530625 20.7104873,15.9375625 C20.7104873,16.4553125 20.2915556,16.875 19.7748772,16.875 C19.2581988,16.875 18.8392671,16.45525 18.8392671,15.9375625 C18.8392671,14.3868125 17.5801014,13.12525 16.0324366,13.12525 C15.5157583,13.12525 15.0968265,12.7055 15.0968265,12.1878125 C15.0968265,11.670125 15.5157583,11.250375 16.0324366,11.250375 Z M5.82924922,3.76042708 L5.73355166,3.8441875 L5.07196881,4.5070625 L10.3645692,9.8099375 L11.0260897,9.147125 C11.3613359,8.81122396 11.3892207,8.28505252 11.1098881,7.91743974 L11.0260897,7.821375 L7.05665497,3.8441875 C6.72226641,3.50914583 6.19567208,3.48122569 5.82924922,3.76042708 Z" id="Combined-Shape" fill="url(#linearGradient-1)" fill-rule="nonzero"></path>
    </g>
</svg>