<?xml version="1.0" encoding="UTF-8"?>
<svg width="32px" height="32px" viewBox="0 0 32 32" version="1.1" xmlns="http://www.w3.org/2000/svg" xmlns:xlink="http://www.w3.org/1999/xlink">
    <!-- Generator: Sketch 58 (84663) - https://sketch.com -->
    <title>icons/ orange/ ico_4auto</title>
    <desc>Created with Sketch.</desc>
    <defs>
        <linearGradient x1="99.8812289%" y1="21.9418088%" x2="0%" y2="78.125%" id="linearGradient-1">
            <stop stop-color="#E04500" offset="0%"></stop>
            <stop stop-color="#E66329" offset="100%"></stop>
        </linearGradient>
    </defs>
    <g id="icons/-orange/-ico_4auto" stroke="none" stroke-width="1" fill="none" fill-rule="evenodd">
        <path d="M24.957265,4 C26.0809117,4.00626151 27.0947768,4.6452834 27.5553293,5.62663984 L27.6307692,5.80331492 L30.0786325,12.201105 L30.7760684,12.9171271 C31.4998779,13.588161 31.9289028,14.4935731 31.9919738,15.452884 L32,15.6751381 L32,25.241989 C31.9934156,26.7103745 30.8074989,27.9082555 29.3153596,27.9949731 L29.1418803,28 L27.3367521,28 C25.8223488,28 24.5805869,26.8565036 24.4845763,25.4101698 L24.4786325,25.241989 L24.4786325,23.8895028 L7.52136752,23.8895028 L7.52136752,25.241989 C7.51478316,26.7103745 6.32886638,27.9082555 4.83672708,27.9949731 L4.66324786,28 L2.85811966,28 C1.34371637,28 0.101954439,26.8565036 0.00594378159,25.4101698 L-3.90798505e-14,25.241989 L-3.90798505e-14,15.920442 C-3.90798505e-14,14.880884 0.440767331,13.8875285 1.21111744,13.1721586 L1.38119658,13.0232044 L2.38632479,12.121547 L4.8,5.80331492 C5.19392213,4.78268877 6.16724702,4.08139963 7.27644355,4.0066287 L7.47350427,4 L24.957265,4 Z M1.36752137,23.5049724 L1.36752137,25.241989 C1.37395676,25.9907702 1.96184899,26.5986044 2.71505738,26.6675234 L2.85811966,26.6740331 L4.66324786,26.6740331 C5.43549522,26.6740331 6.06843522,26.1102449 6.14592717,25.3806366 L6.15384615,25.241989 L6.15384615,23.8895028 L2.85811966,23.8895028 C2.31794872,23.8895028 1.77777778,23.7635359 1.36752137,23.5049724 Z M30.6324786,23.5049724 C30.2735043,23.7312155 29.8150641,23.8559392 29.3441907,23.8835851 L29.1418803,23.8895028 L25.8461538,23.8895028 L25.8461538,25.241989 C25.8525892,25.9845304 26.4404815,26.5978703 27.1936899,26.6674586 L27.3367521,26.6740331 L29.1418803,26.6740331 C29.9141277,26.6740331 30.5470677,26.1102449 30.6245596,25.3806366 L30.6324786,25.241989 L30.6324786,23.5049724 Z M29.1282051,13.1491713 L3.23418803,13.1491713 L2.3042735,13.9977901 C2.2974359,14.0044199 2.28376068,14.0176796 2.27692308,14.0243094 C1.75042735,14.4558011 1.42502374,15.0767035 1.37444603,15.7389234 L1.36752137,15.920442 L1.36752137,21.1447514 C1.37395676,21.8935327 1.96790584,22.4954941 2.71612624,22.558238 L2.85811966,22.5635878 L29.1418803,22.5635878 C29.9076923,22.5697788 30.5463106,22.0063547 30.6244928,21.2822952 L30.6324786,21.1447514 L30.625641,21.1447514 L30.625641,15.6751381 C30.625641,14.9922652 30.3316239,14.3359116 29.8188034,13.8651934 L29.8017094,13.8486188 L29.7846154,13.8320442 L29.1282051,13.1491713 Z M9.02564103,15.801105 C9.36752137,15.801105 9.65289256,16.0476691 9.70195278,16.366459 L9.70940171,16.4640884 L9.70940171,19.9116022 C9.70940171,20.2430939 9.45511055,20.5197936 9.12633005,20.5673631 L9.02564103,20.5745856 L3.8974359,20.5745856 C3.55555556,20.5745856 3.27018436,20.3280216 3.22112415,20.0092316 L3.21367521,19.9116022 L3.21367521,16.4640884 C3.21367521,16.1325967 3.46796638,15.855897 3.79674687,15.8083276 L3.8974359,15.801105 L9.02564103,15.801105 Z M28.1025641,15.801105 C28.4444444,15.801105 28.7298156,16.0476691 28.7788759,16.366459 L28.7863248,16.4640884 L28.7863248,19.9116022 C28.7863248,20.2430939 28.5320336,20.5197936 28.2032531,20.5673631 L28.1025641,20.5745856 L22.974359,20.5745856 C22.6324786,20.5745856 22.3471074,20.3280216 22.2980472,20.0092316 L22.2905983,19.9116022 L22.2905983,16.4640884 C22.2905983,16.1325967 22.5448895,15.855897 22.8736699,15.8083276 L22.974359,15.801105 L28.1025641,15.801105 Z M12.6974359,18.5856354 L19.3025641,18.5856354 C19.6786325,18.5856354 19.9863248,18.8839779 19.9863248,19.2486188 C19.9863248,19.5801105 19.7320336,19.8568102 19.4032531,19.9043796 L19.3025641,19.9116022 L12.6974359,19.9116022 C12.3213675,19.9116022 12.0136752,19.6132597 12.0136752,19.2486188 C12.0136752,18.9171271 12.2679664,18.6404274 12.5967469,18.5928579 L12.6974359,18.5856354 L19.3025641,18.5856354 Z M8.34188034,17.1270718 L4.58119658,17.1270718 L4.58119658,19.2486188 L8.34188034,19.2486188 L8.34188034,17.1270718 Z M27.4188034,17.1270718 L23.6581197,17.1270718 L23.6581197,19.2486188 L27.4188034,19.2486188 L27.4188034,17.1270718 Z M19.3025641,16.5303867 C19.6786325,16.5303867 19.9863248,16.8287293 19.9863248,17.1933702 C19.9863248,17.558011 19.6786325,17.8563536 19.3025641,17.8563536 L19.3025641,17.8563536 L12.6974359,17.8563536 C12.3213675,17.8563536 12.0136752,17.558011 12.0136752,17.1933702 C12.0136752,16.8287293 12.3213675,16.5303867 12.6974359,16.5303867 L12.6974359,16.5303867 Z M24.9641026,5.32596685 L7.47350427,5.32596685 C6.90545694,5.32596685 6.38984474,5.63666678 6.1417862,6.12770302 L6.08547009,6.25414365 L3.95213675,11.8232044 L17.6136752,11.8232044 C17.9145299,9.84088398 19.5213675,8.28287293 21.565812,7.99116022 C24.0566545,7.63049724 26.3797328,9.24059984 26.8551929,11.6120168 L26.8923077,11.8232044 L28.4854701,11.8232044 L26.3521368,6.25414365 C26.1333333,5.69723757 25.5794872,5.32596685 24.9641026,5.32596685 Z M19.0386713,11.6451087 L18.9948718,11.8232044 L25.4974359,11.8232044 C25.2239316,10.5701657 24.2188034,9.59558011 22.9333333,9.33038674 C21.1970528,8.97831968 19.4926431,10.0045014 19.0386713,11.6451087 Z" id="Combined-Shape" fill="url(#linearGradient-1)" fill-rule="nonzero"></path>
    </g>
</svg>