<?xml version="1.0" encoding="UTF-8"?>
<svg width="32px" height="32px" viewBox="0 0 32 32" version="1.1" xmlns="http://www.w3.org/2000/svg" xmlns:xlink="http://www.w3.org/1999/xlink">
    <!-- Generator: Sketch 58 (84663) - https://sketch.com -->
    <title>icons/ orange/ ico_2cieciestalistrukturalnej</title>
    <desc>Created with Sketch.</desc>
    <defs>
        <linearGradient x1="99.8812289%" y1="0.118771115%" x2="0%" y2="100%" id="linearGradient-1">
            <stop stop-color="#E04500" offset="0%"></stop>
            <stop stop-color="#E66329" offset="100%"></stop>
        </linearGradient>
    </defs>
    <g id="icons/-orange/-ico_2cieciestalistrukturalnej" stroke="none" stroke-width="1" fill="none" fill-rule="evenodd">
        <path d="M31.4052865,0 C31.469037,0.00112280702 31.5319766,0.0138479532 31.5911735,0.0375516569 C31.6085146,0.0446003899 31.6254191,0.0526471735 31.6418869,0.0615672515 C31.6818713,0.0815906433 31.7191111,0.106729045 31.7526706,0.136233918 C31.7668304,0.147711501 31.7803665,0.159937622 31.7932788,0.172849903 L31.8465887,0.239516569 L31.8883431,0.313949318 L31.8962651,0.327111111 C31.9202807,0.387306043 31.9327563,0.449808967 31.9337544,0.513060429 L31.9357817,0.522643275 L31.9376218,0.532272904 L31.9376218,3.72603509 C31.9369731,3.83901442 31.9009535,3.94816125 31.8356949,4.03862456 L31.7813645,4.10273684 L24.7719298,11.1121092 C24.8732943,12.349692 25.9053411,13.3035166 27.1470409,13.3073216 C27.1923899,13.3103782 27.237115,13.319423 27.2800936,13.3342066 L27.345731,13.3163197 L27.4131462,13.3073216 L31.4053489,13.3073216 C31.4478493,13.3080702 31.4899892,13.3139753 31.5309,13.3248522 L31.5912359,13.3448733 L31.6419493,13.3689513 C31.7494893,13.4238441 31.8360702,13.5124834 31.8883431,13.6213333 L31.8923509,13.6278674 L31.8962651,13.6344951 C31.9202807,13.6946901 31.9327563,13.757193 31.9337544,13.8204444 L31.9357817,13.8300273 L31.9376218,13.8396569 L31.9376218,17.0334191 C31.9376218,17.1463485 31.901692,17.2555652 31.8362199,17.3458349 L31.7816764,17.4097466 L28.5879142,20.6035088 L17.9511267,31.7723197 C17.901848,31.8197895 17.8503236,31.8555945 17.793809,31.8816686 C17.7867602,31.885037 17.7816452,31.8916491 17.7744717,31.8947057 C17.7304743,31.9135854 17.684259,31.926366 17.6370642,31.9327887 L17.565692,31.9376218 L0.532272904,31.9376218 C0.267683431,31.9376218 0.0482139571,31.7446113 0.00696595712,31.4916917 L0,31.4053489 L0,28.2115867 C0.000698635478,28.0987072 0.0366883431,27.9896602 0.101869037,27.8992009 L0.156132554,27.8350721 L6.91979727,21.071345 L6.91979727,20.4932865 C6.91842235,19.2260897 5.93420966,18.1891344 4.68839719,18.1036587 L4.52447563,18.0979649 L0.532272904,18.0979649 C0.267683431,18.0979649 0.0482139571,17.9049544 0.00696595712,17.6520348 L0,17.565692 L0,14.3719298 L0.00661208577,14.3390565 C0.0128499025,14.2736218 0.0283820663,14.2094347 0.052834308,14.1484288 C0.0695100715,14.1109188 0.0904829976,14.0755434 0.115291026,14.0430051 L0.155321637,13.9964133 L0.156132554,13.9954152 L13.9956023,0.155945419 C14.0754464,0.0761013645 14.178046,0.024202729 14.2881669,0.00663703704 L14.3719298,0 L31.4052865,0 Z M17.0334191,14.9042027 L1.06460819,14.9042027 L1.06460819,17.0333567 L4.52453801,17.0333567 C6.37082989,17.0355275 7.87869623,18.4818648 7.97914132,20.3035421 L7.98446784,20.4932865 L7.98446784,25.2839298 C7.98229708,27.1302217 6.53595973,28.638088 4.71428247,28.7385331 L4.52453801,28.7438596 L1.06460819,28.7438596 L1.06460819,30.8730136 L17.0334191,30.8730136 L17.0334191,28.7438596 L13.5734893,28.7438596 C11.7271974,28.7416889 10.2193311,27.2953515 10.118886,25.4736743 L10.1135595,25.2839298 L10.1135595,20.4932865 C10.1157302,18.6469947 11.5620676,17.1391283 13.3837448,17.0386832 L13.5734893,17.0333567 L17.0334191,17.0333567 L17.0334191,14.9042027 Z M30.873076,15.1246472 L28.5879142,17.4097466 L18.0979649,28.4243587 L18.0979649,30.0744483 L27.8258402,19.8601481 L30.873076,16.8129747 L30.873076,15.1246472 Z M6.91979727,22.5767173 L1.81726316,27.6792515 L4.52447563,27.6792515 C5.79167251,27.6778765 6.82862779,26.6936639 6.91410346,25.4478514 L6.91979727,25.2839298 L6.91979727,22.5767173 Z M23.8701287,12.0139103 L17.9422066,17.9418324 C17.862163,18.0215267 17.7595634,18.0733555 17.6494504,18.0911228 L17.565692,18.0979649 L13.5734893,18.0979649 C12.3062924,18.0993398 11.2693371,19.0835525 11.1838614,20.329365 L11.1781676,20.4932865 L11.1781676,25.2839298 C11.1795426,26.5511267 12.1637553,27.588082 13.4095677,27.6735577 L13.5734893,27.6792515 L17.3374503,27.6792515 L27.8258402,16.666386 L30.1202963,14.3719298 L27.4130838,14.3719298 C27.3677349,14.3688733 27.3230097,14.3598285 27.2800312,14.3450448 C27.2370526,14.3598908 27.1923275,14.3689357 27.1469786,14.3719298 C25.662191,14.3694971 24.3441404,13.421037 23.8701287,12.0139103 Z M13.5114854,25.0286784 C13.7112203,25.1115789 13.8409045,25.3070721 13.8396044,25.5233996 C13.8396044,25.8173879 13.6013099,26.0556725 13.3073216,26.0556725 C13.0133957,26.0556725 12.7750487,25.8173879 12.7750487,25.5233996 C12.7771072,25.382425 12.8321871,25.247501 12.9294347,25.1454503 C13.0816998,24.9918752 13.3117505,24.9457778 13.5114854,25.0286784 Z M15.4692675,22.7627123 L15.5621676,22.7767641 C15.7469942,22.8216764 15.8938324,22.9617778 15.9473528,23.1442339 C15.9919532,23.2963327 15.9661183,23.4586545 15.8802804,23.5881701 L15.8216608,23.6615984 L15.2893879,24.219384 C15.0862846,24.4312203 14.7500039,24.4387057 14.5376062,24.2361014 C14.3488083,24.0560087 14.3212757,23.7702951 14.4594331,23.5595462 L14.5190175,23.4843821 L15.0512904,22.9265965 L15.1218904,22.8645989 C15.1970977,22.8095069 15.2851081,22.7754311 15.376752,22.7650694 L15.4692675,22.7627123 Z M17.9332242,20.6783626 C18.1222993,20.858788 18.1495671,21.1451299 18.010734,21.3559267 L17.9508772,21.4310799 L17.4186043,21.9888655 C17.2156257,22.201575 16.8785965,22.2094971 16.6658869,22.0065185 C16.4768118,21.8260931 16.4495441,21.5397512 16.5883771,21.3289544 L16.6482339,21.2538012 L17.1805068,20.6960156 C17.3834854,20.483306 17.7204522,20.475384 17.9332242,20.6783626 Z M20.0623782,18.4477817 C20.2514533,18.6282071 20.2787211,18.914549 20.139888,19.1253458 L20.0800312,19.200499 L19.5477583,19.7582846 C19.4473918,19.8637037 19.3081014,19.9232749 19.1625731,19.9230882 C18.9494893,19.9231501 18.7569279,19.7961481 18.6730916,19.6002807 C18.601232,19.4323943 18.6211217,19.2416393 18.7208977,19.0934986 L18.7773879,19.0232827 L19.3096608,18.4654971 C19.5126394,18.2527875 19.8496686,18.2448655 20.0623782,18.4477817 Z M21.950191,16.0840858 L21.950191,16.0840858 C22.1353918,16.1289357 22.2824172,16.2692865 22.3358752,16.452117 C22.3804237,16.6044756 22.3543201,16.7670141 22.2680693,16.8965585 L22.2091852,16.9699805 L21.6769123,17.5277661 C21.5765458,17.6331852 21.4372554,17.6927563 21.2917271,17.6925696 C21.0786433,17.6926316 20.8860819,17.5656296 20.8022456,17.3697622 C20.730386,17.2018758 20.7502757,17.0111208 20.8500517,16.8629801 L20.9065419,16.7927641 L21.4388148,16.2349786 C21.526269,16.1428668 21.6421122,16.086574 21.7644797,16.0725689 L21.857137,16.0700952 Z M30.8730136,1.81726316 L18.0979649,14.5923119 L18.0979649,16.2807018 L23.8428694,10.5357973 L23.8431813,10.5354854 L30.8730136,3.50565302 L30.8730136,1.81726316 Z M23.2167797,14.4360546 C23.4165146,14.3530916 23.6465653,14.3992515 23.7988928,14.5528265 C23.8968889,14.6543782 23.9521559,14.7896764 23.9532788,14.9307758 C23.9556491,15.0710019 23.8997583,15.2059883 23.7988928,15.3034854 C23.6993372,15.405037 23.5631657,15.4625497 23.4209435,15.4630487 C23.2786589,15.4625497 23.1425497,15.4050994 23.0429942,15.3034854 C22.9420039,15.2060507 22.8861131,15.0710643 22.8886082,14.9307758 C22.8873606,14.7145107 23.0170448,14.5189552 23.2167797,14.4360546 Z M30.1202963,1.06460819 L14.5923119,1.06460819 L1.81726316,13.8396569 L17.3452476,13.8396569 L30.1202963,1.06460819 Z" id="Combined-Shape" fill="url(#linearGradient-1)" fill-rule="nonzero"></path>
    </g>
</svg>