<?xml version="1.0" encoding="UTF-8"?>
<svg width="32px" height="32px" viewBox="0 0 32 32" version="1.1" xmlns="http://www.w3.org/2000/svg" xmlns:xlink="http://www.w3.org/1999/xlink">
    <!-- Generator: Sketch 58 (84663) - https://sketch.com -->
    <title>icons/ black/ ico_mail_black</title>
    <desc>Created with Sketch.</desc>
    <g id="icons/-black/-ico_mail_black" stroke="none" stroke-width="1" fill="none" fill-rule="evenodd">
        <path d="M15.9375,0 C24.6714375,0 32,7.054375 32,15.9375 C32,24.755375 24.72775,32 15.9375,32 C7.0640625,32 0,24.6809375 0,15.9375 C0,7.128125 7.12875,0 15.9375,0 Z M15.9375,1.8625 C8.1834375,1.8625 1.8625,8.1834375 1.8625,15.9375 C1.8625,23.7605 8.1834375,30.1375 15.9375,30.1375 C23.7605,30.1375 30.1375,23.7605 30.1375,15.9375 C30.1375,8.1834375 23.7605,1.8625 15.9375,1.8625 Z M15.9375,5.625 C21.638125,5.625 26.375,10.234125 26.375,15.9375 L26.375,15.9375 L26.375,16.875 C26.375,18.94275 24.69275,20.625 22.625,20.625 C21.3509375,20.625 20.2239375,19.98575 19.5459375,19.01175 C18.6286875,20.023625 17.3389375,20.625 15.9375,20.625 C13.3528125,20.625 11.25,18.5221875 11.25,15.9375 C11.25,13.3528125 13.3528125,11.25 15.9375,11.25 C17.00425,11.25 18.028375,11.601375 18.875,12.2469375 L18.875,12.2469375 L18.875,12.1875 C18.875,11.66975 19.29475,11.25 19.8125,11.25 C20.33025,11.25 20.75,11.66975 20.75,12.1875 L20.75,12.1875 L20.75,16.875 C20.75,17.908875 21.591125,18.75 22.625,18.75 C23.658875,18.75 24.5,17.908875 24.5,16.875 L24.5,16.875 L24.5,15.9375 C24.5,11.2850625 20.658875,7.4875 15.9375,7.4875 C11.2850625,7.4875 7.5,11.2850625 7.5,15.9375 C7.5,20.658875 11.2850625,24.5125 15.9375,24.5125 C17.8376875,24.5125 19.753,23.866625 21.1923125,22.7623125 C21.6030625,22.447125 22.191625,22.524625 22.5068125,22.9354375 C22.822,23.34625 22.7445,23.93475 22.3336875,24.2499375 C20.5734375,25.6004375 18.242125,26.375 15.9375,26.375 C10.2416875,26.375 5.625,21.6451875 5.625,15.9375 C5.625,10.2511875 10.2511875,5.625 15.9375,5.625 Z M15.9375,13.1125 C14.3866875,13.1125 13.125,14.3866875 13.125,15.9375 C13.125,17.4883125 14.3866875,18.7625 15.9375,18.7625 C17.5298125,18.7625 18.875,17.4620625 18.875,15.9375 C18.875,14.4129375 17.5298125,13.1125 15.9375,13.1125 Z" id="Combined-Shape" fill="#000000" fill-rule="nonzero"></path>
    </g>
</svg>