<?xml version="1.0" encoding="UTF-8"?>
<svg width="32px" height="32px" viewBox="0 0 32 32" version="1.1" xmlns="http://www.w3.org/2000/svg" xmlns:xlink="http://www.w3.org/1999/xlink">
    <!-- Generator: Sketch 58 (84663) - https://sketch.com -->
    <title>icons/ orange/ ico_map_orange</title>
    <desc>Created with Sketch.</desc>
    <defs>
        <linearGradient x1="99.8812289%" y1="0.361661475%" x2="0%" y2="99.7565313%" id="linearGradient-1">
            <stop stop-color="#E04500" offset="0%"></stop>
            <stop stop-color="#E66329" offset="100%"></stop>
        </linearGradient>
    </defs>
    <g id="icons/-orange/-ico_map_orange" stroke="none" stroke-width="1" fill="none" fill-rule="evenodd">
        <path d="M31.931616,1.01015604 L31.9376842,1.13288496 L31.9376842,26.6196106 C31.9376842,27.0104496 31.7489684,27.3657919 31.4522981,27.5505209 L31.3495205,27.6055929 L21.9966004,31.8516814 C21.6930058,31.9908673 21.4936452,31.9012389 21.4312671,31.9012389 C21.4068564,31.8935457 21.400577,31.8927748 21.3839474,31.8873471 L21.3476803,31.8742655 L10.3233372,27.7493097 L1.28318129,31.8533805 C0.706425818,32.1151504 0.0745313214,31.6755278 0.00610093134,30.9907023 L-6.39488462e-14,30.8673982 L-6.39488462e-14,5.38067257 C-6.39488462e-14,4.98983363 0.188665263,4.63443398 0.485370947,4.44969345 L0.588163743,4.39461947 L9.94488889,0.146831858 C10.1056686,0.0737935103 10.2946052,0.0511484759 10.4769718,0.0920481809 L10.5853255,0.124318584 L21.614347,4.25097345 L30.6544405,0.146902655 C31.2347897,-0.116405113 31.8635454,0.328120835 31.931616,1.01015604 Z M11.2280702,2.60113274 L11.2280702,10.6524602 C11.6051462,10.6593982 11.9822222,10.7030088 12.3505029,10.7830796 C12.8580117,10.8934513 13.1906121,11.4499115 13.0933645,12.0259115 C12.9962417,12.6012743 12.5065107,12.979469 11.9983158,12.8690265 C11.8299363,12.8324012 11.6588677,12.8070403 11.4867732,12.7922098 L11.2280702,12.7777699 L11.2280702,25.8515398 L20.709614,29.3991504 L20.709614,19.9306195 C20.4049591,19.9689912 19.3904405,19.8089204 18.4739181,19.3678584 C17.9981598,19.1388319 17.7760312,18.515469 17.9777622,17.9755752 C18.1793684,17.4355398 18.7286082,17.1835044 19.2044288,17.4123894 C19.6682105,17.6356106 20.1638674,17.7716814 20.6774269,17.8169204 L20.6935673,17.8190708 L20.709614,17.8215929 L20.709614,6.14874336 L11.2280702,2.60113274 Z M9.35672515,2.70138053 L1.87134503,6.09961062 L1.87134503,29.2988319 L9.35672515,25.9006018 L9.35672515,2.70138053 Z M30.0662768,2.70138053 L22.5808967,6.09961062 L22.5808967,29.2989027 L30.0662768,25.9006726 L30.0662768,2.70138053 Z M5.27014425,18.2329912 C5.72535784,18.4052288 5.98635287,18.9360993 5.89041356,19.4565357 L5.86186355,19.5762832 L5.56594152,20.5837168 C5.40238596,21.1406018 4.87204678,21.4406372 4.38237817,21.255292 C3.92716458,21.0830544 3.66622334,20.5521839 3.76212038,20.0317475 L3.79065887,19.912 L4.0865809,18.9045664 C4.2500117,18.3482478 4.77991423,18.047292 5.27014425,18.2329912 Z M26.001154,15.6744779 C26.41023,16.0328496 26.4859571,16.6997522 26.1701988,17.1640354 C25.731306,17.8094159 25.2004055,18.36 24.5922183,18.8002832 C24.1561949,19.1158938 23.5779493,18.9703363 23.300117,18.4760354 C23.0222222,17.9815929 23.1501598,17.3250265 23.5857466,17.0096283 C24.0112281,16.7016637 24.3823158,16.3169558 24.6887173,15.8663363 C25.0044133,15.4020531 25.5918285,15.3161062 26.001154,15.6744779 Z M15.9809123,13.1946903 C16.6224717,14.0653451 16.8754776,14.8157876 17.0293021,15.143646 C17.2722651,15.6613097 17.0994776,16.3044248 16.6433684,16.580177 C16.1875088,16.8557876 15.6206784,16.6600354 15.377653,16.1421593 C15.1799766,15.7209912 15.0230955,15.2054513 14.5454035,14.5571681 C14.2138635,14.1072566 14.2665107,13.4375221 14.662924,13.0613097 C15.0593372,12.6850973 15.6493723,12.7447788 15.9809123,13.1946903 Z M7.80737622,12.8368142 C8.18208187,13.2406372 8.1974269,13.9128496 7.84155945,14.3381239 C7.49960234,14.7468319 7.2197115,15.2237876 7.00949708,15.7559646 C6.79815984,16.2909027 6.24461598,16.5306195 5.77297466,16.2905487 C5.30139571,16.0506195 5.09049513,15.4223009 5.30189474,14.8870796 C5.59875244,14.1355044 5.99666277,13.4586903 6.4845848,12.8755398 C6.84045224,12.4502655 7.43260819,12.4329204 7.80737622,12.8368142 Z M26.3831579,11.379469 C26.564616,10.8303009 27.1038129,10.5519292 27.5878051,10.7580177 C28.0716725,10.9639646 28.3168187,11.5760708 28.1353606,12.1252389 L28.1353606,12.1252389 L27.8068148,13.1195752 C27.6659649,13.5458407 27.3094113,13.8089204 26.9305887,13.8089204 C26.2777388,13.8089204 25.8256842,13.0666195 26.0546121,12.3738053 L26.0546121,12.3738053 Z" id="Combined-Shape" fill="url(#linearGradient-1)" fill-rule="nonzero"></path>
    </g>
</svg>