<?xml version="1.0" encoding="UTF-8"?>
<svg width="32px" height="32px" viewBox="0 0 32 32" version="1.1" xmlns="http://www.w3.org/2000/svg" xmlns:xlink="http://www.w3.org/1999/xlink">
    <!-- Generator: Sketch 58 (84663) - https://sketch.com -->
    <title>icons/ orange/ ico_service</title>
    <desc>Created with Sketch.</desc>
    <defs>
        <linearGradient x1="99.8779325%" y1="0.118771115%" x2="0.00330418443%" y2="100%" id="linearGradient-1">
            <stop stop-color="#E04500" offset="0%"></stop>
            <stop stop-color="#E66329" offset="100%"></stop>
        </linearGradient>
    </defs>
    <g id="icons/-orange/-ico_service" stroke="none" stroke-width="1" fill="none" fill-rule="evenodd">
        <path d="M27.1351728,0.196717466 C27.2296937,0.219963933 27.3161003,0.268649842 27.384743,0.337292613 C27.5699348,0.522289464 27.5906849,0.80952076 27.4468395,1.01739039 L27.3851817,1.09126675 L24.0666429,4.41046342 L24.9447443,7.04279357 L27.5777323,7.920237 L30.8962711,4.6038913 C30.9646946,4.53568711 31.0502239,4.4872205 31.1440868,4.46375474 C31.4298426,4.39269964 31.7191073,4.5666093 31.7901624,4.85236507 C31.9219653,5.37190102 31.9877571,5.90569185 31.9860027,6.44167577 C31.9741602,9.96263398 29.1100235,12.8074717 25.5890653,12.7956292 C25.274416,12.7946423 24.9603835,12.7699704 24.6496508,12.721891 L24.3401175,12.6660193 L21.5450623,15.4610746 L22.7674741,16.6834863 C22.9524709,16.8684832 22.9730261,17.1557145 22.8291397,17.3634301 L22.7674741,17.4372412 L22.5007979,17.7039173 C22.5005786,17.7043559 22.50014,17.7045752 22.4997014,17.7050138 C22.2667984,17.9383554 22.2674563,18.316439 22.5007979,18.549342 C22.7087975,18.755977 23.0302947,18.7789364 23.263516,18.6182203 L23.346442,18.549342 L23.6128987,18.2828852 C23.7978955,18.0978883 24.0851269,18.0773331 24.2928425,18.2212196 L24.3666535,18.2828852 L30.7535028,24.6697345 C32.4261499,26.3575136 32.4138687,29.0819523 30.7260896,30.7545994 C29.0925427,32.3732901 26.4885495,32.4140043 24.8063064,30.8850901 L24.6412247,30.7269669 L18.2817886,24.3675308 C18.0967918,24.182534 18.0762366,23.8953026 18.220123,23.6875871 L18.2817886,23.613776 L18.5482455,23.3473192 C18.5486841,23.3468805 18.5491227,23.3464419 18.549342,23.3462226 C18.782245,23.1126617 18.7818064,22.7345781 18.5482455,22.5016751 C18.3404408,22.2952351 18.018792,22.2722973 17.7856886,22.4328618 L17.7028207,22.5016751 L17.4363639,22.7683513 C17.2511722,22.9533481 16.9640925,22.9739033 16.756259,22.8300169 L16.6823898,22.7683513 L15.459978,21.5459395 L12.6649228,24.3409948 C12.7497942,24.7519742 12.7932168,25.1704101 12.7945327,25.5901619 C12.7945327,29.1231819 9.930396,31.9873185 6.39737595,31.9873185 C2.8641366,31.9873185 3.12638804e-13,29.1231819 3.12638804e-13,25.5901619 C3.12638804e-13,22.0569225 2.8641366,19.1927859 6.39737595,19.1927859 C6.71202525,19.1939372 7.0260578,19.2185269 7.33679045,19.2665549 L7.64632376,19.3223957 L19.3215185,7.64742031 C19.2364277,7.2364408 19.1932245,6.81800491 19.1919087,6.39825321 C19.1901542,5.86380439 19.2557267,5.33132942 19.387091,4.81332857 C20.2518147,1.39895311 23.720578,-0.668006195 27.1351728,0.196717466 Z M24.248009,1.23118402 C21.4093118,1.95774486 19.6969704,4.8477596 20.4233119,7.68645676 C20.461325,7.83777791 20.4306526,7.99656155 20.342717,8.12194168 L20.2831754,8.1928344 L8.19239573,20.2842719 C8.05949631,20.4160749 7.86760352,20.4693662 7.68579885,20.4248471 C6.81690836,20.2037867 5.9065691,20.2037867 5.03767861,20.4248471 C2.16520835,21.1562327 0.429620456,24.0776082 1.16078676,26.9498592 C1.89217231,29.8223295 4.81354788,31.5579174 7.68579885,30.8265318 C10.5582692,30.0953655 12.293857,27.1739899 11.5624714,24.301739 C11.5248239,24.1502351 11.5555572,23.9914209 11.6436299,23.8660358 L11.7032659,23.7951421 L23.7968965,11.7037045 C23.9265064,11.5712437 24.1188377,11.5181716 24.3006424,11.5635679 C24.7392545,11.6758526 25.1905863,11.7315564 25.6434532,11.7293633 C28.5727237,11.7142312 30.9350882,9.32752374 30.9202456,6.39825321 L30.9177708,6.24750773 L30.9177708,6.24750773 L30.9105259,6.09561089 L28.0983648,8.90777198 C27.9793913,9.02656277 27.8129015,9.0809324 27.6500414,9.05882412 L27.5531701,9.03628534 L24.3543724,7.97001949 C24.2269995,7.92773725 24.121522,7.83927798 24.0571408,7.72417918 L24.0168605,7.63316543 L22.9508138,4.43436776 C22.8976322,4.27482264 22.923492,4.10157087 23.0162097,3.96575852 L23.0797658,3.88917301 L25.8919269,1.0759153 C25.3392757,1.04148427 24.7844315,1.09411771 24.248009,1.23118402 Z M30.7133699,26.5507223 L26.549845,30.7144664 C26.9123578,30.8506554 27.2963627,30.920614 27.6836572,30.921274 C28.0735832,30.9217106 28.4602198,30.8515327 28.8249257,30.7144664 C30.4962569,30.0861546 31.3416816,28.2220534 30.7133699,26.5507223 Z M20.7910881,16.2148294 L16.2091274,20.7899916 L17.0620086,21.6428728 C17.6802322,21.1233368 18.5824572,21.1226789 19.2013388,21.6415569 C19.8641074,22.1969946 19.9850732,23.1594156 19.5048144,23.8578088 L19.4077058,23.9854997 L25.3949795,29.973212 L25.4950379,30.0678974 L25.4950379,30.0678974 L25.5987148,30.1576484 L30.1567712,25.599592 L30.0668557,25.496107 L30.0668557,25.496107 L29.9723348,25.396076 L23.9896665,19.4081444 C23.3714428,19.9278997 22.4694372,19.9283383 21.8505555,19.4096795 C21.187787,18.8542419 21.0668211,17.8918208 21.5470799,17.1934276 L21.6441886,17.0657367 L20.7910881,16.2148294 Z M7.99655547,22.3915835 C8.15262828,22.3915835 8.29895411,22.4596598 8.39923585,22.5752523 L8.45358922,22.6501453 L10.0527687,25.3155907 C10.1373843,25.4563121 10.1514869,25.6264265 10.0950765,25.7770725 L10.0527687,25.864733 L8.45358922,28.5301784 C8.37317701,28.6637723 8.23946127,28.7542665 8.08873914,28.7807203 L7.99655547,28.7887402 L4.79797714,28.7887402 C4.64208712,28.7887402 4.49563942,28.7205117 4.3954389,28.6049952 L4.34116268,28.5301784 L2.74176387,25.864733 C2.65714828,25.7238289 2.64304569,25.5536839 2.69945608,25.4031598 L2.74176387,25.3155907 L4.34116268,22.6501453 C4.42139214,22.5163686 4.55522975,22.4259963 4.70587064,22.3995882 L4.79797714,22.3915835 L7.99655547,22.3915835 Z M7.69500973,23.4576301 L5.09974223,23.4576301 L3.82031086,25.5901619 L5.09974223,27.7224743 L7.69500973,27.7224743 L8.97444104,25.5901619 L7.69500973,23.4576301 Z M22.2347797,21.4814635 L27.5658898,26.8123543 L26.8119157,27.5663284 L21.4810249,22.2354377 L22.2347797,21.4814635 Z M21.4808056,9.75297742 L22.2345604,10.5067322 L10.5062936,22.2352183 L9.75231951,21.4812442 L21.4808056,9.75297742 Z M2.85337736,0.0368737919 L2.93365665,0.0741253857 L6.66558723,2.20643786 C6.76646801,2.26415924 6.8450322,2.35289922 6.89050047,2.45828541 L6.91822777,2.54022165 L7.41561383,4.52866932 L14.2393207,11.3523762 L13.4855659,12.1063504 L6.55505699,5.17584141 C6.50958753,5.13037195 6.47279287,5.07710497 6.44642741,5.01883456 L6.41492043,4.92802563 L5.93507885,3.01633499 L2.75470294,1.19894602 L1.19806876,2.75558014 L3.01370334,5.93464025 L4.92539392,6.41426253 C4.98782305,6.42990637 5.04664579,6.4566617 5.09913302,6.49303401 L5.17277112,6.55461839 L12.1032801,13.484908 L11.3493059,14.2386628 L4.52559903,7.41495593 L2.53605479,6.91756987 C2.42341924,6.88932326 2.32383677,6.82528591 2.25167983,6.73623713 L2.20292898,6.66492933 L0.0703972193,2.93321805 C-0.0324573054,2.74957663 -0.0167700844,2.52580571 0.103648633,2.35975248 L0.161628525,2.29240582 L2.29394094,0.159874055 C2.44246597,0.0119247659 2.66151155,-0.033433883 2.85337736,0.0368737919 Z" id="Combined-Shape" fill="url(#linearGradient-1)" fill-rule="nonzero"></path>
    </g>
</svg>