<?xml version="1.0" encoding="utf-8"?>
<!-- Generator: Adobe Illustrator 23.0.6, SVG Export Plug-In . SVG Version: 6.00 Build 0)  -->
<svg version="1.1" id="Warstwa_1" xmlns="http://www.w3.org/2000/svg" xmlns:xlink="http://www.w3.org/1999/xlink" x="0px" y="0px"
	 viewBox="0 0 1131.6 357.2" style="enable-background:new 0 0 1131.6 357.2;" xml:space="preserve">
<style type="text/css">
	.st0{fill:#1A1B1B;}
	.st1{fill:#191A1A;}
	.st2{fill:#1B1C1C;}
	.st3{fill:#BD2F23;}
	.st4{fill:#BD3024;}
	.st5{fill:#BD3025;}
	.st6{fill:#BE3125;}
	.st7{fill:#BE3227;}
	.st8{fill:#BD2E23;}
	.st9{fill:#BF362B;}
</style>
<g>
	<path class="st0" d="M80.8,125c-9.4-11.7-18.9-23.6-28.4-35.5c-1.9-2.3-3.7-4.7-5.6-7c-1.4-1.6-1.6-3.3-0.8-5.2
		c0.3-0.8,0.7-1.7,1.2-2.4C51.3,68.6,56.9,64,64,61.4c4-1.5,5.4-1,8.1,2.3c10.8,13.5,21.6,27,32.4,40.4c0.3,0.4,0.7,0.8,1,1.2
		c4.2-2.1,8.3-4.3,12.6-6.2c4.9-2.2,10.1-4.1,15.6-3.7c2.8,0.2,4.7-0.8,6.7-2.4c38.2-30.7,76.3-61.3,114.5-91.9
		c0.5-0.4,0.9-0.7,1.5-1.2c0.4,0.5,0.8,0.9,1.2,1.3c6.6,8.2,13.1,16.4,19.7,24.6c0.4,0.5,0.7,1.4,0.5,2
		c-9.5,40.1-19,80.2-28.7,120.7c-0.6-0.6-1-1.1-1.4-1.6c-6.6-8.3-13.4-16.5-19.9-24.9c-1.7-2.1-3.6-2.9-6.1-3.1
		c-4.9-0.4-9.6,0.5-14.2,1.9c-12.3,3.6-23.7,9.3-34.9,15.6c-0.1,0.1-0.2,0.2-0.4,0.4c2.5,3.1,4.8,6.5,7.6,9.4
		c4.1,4.3,4.1,8.9,2.1,13.9c-2,5.1-5,9.7-8.5,13.9c-12.5,15.1-27.5,27.1-45.7,34.6c-3.5,1.4-7.3,2.3-11.1,2.9
		c-4.4,0.7-8.2-0.2-11-4.3c-2-3-4.5-5.7-7-8.8c-9.8,12-18.7,24.5-24.2,39.6c2.8-0.3,5.2-0.5,7.5-0.9c14.1-2.4,27.1-8,39.7-14.5
		c15.6-8,29.8-18.2,43.7-28.7c3.6-2.7,7.2-5.4,10.9-8.2c7.7,9.6,15.3,19.1,23,28.7c-59.3,47.5-118.4,95-177.7,142.5
		c-5.6-7-11.1-13.8-16.6-20.7c-1.5-1.8-2.9-3.7-4.4-5.5c-0.8-0.9-0.9-1.6-0.5-2.7c8.2-26.4,16.3-52.9,24.5-79.3
		c8.5-27.5,16.9-55,25.4-82.4c0.3-0.9,0.9-1.8,1.7-2.4c3.8-3.2,7.7-6.3,11.6-9.4c1-0.7,1.4-1.5,1.6-2.8c0.5-5,2.7-9.5,5.5-13.5
		C73.7,133.9,77.3,129.6,80.8,125z M122.8,226.7c-0.1-0.2-0.2-0.3-0.3-0.5c-0.7,0.3-1.4,0.6-2,1c-9.9,5-20,9.2-30.8,11.9
		c-8,2-16,3.2-24.2,1.6c-8.7-1.6-14.4-7-16-15.3c-0.9-4.6-0.3-9.1,0.8-13.5c2.5-9.8,7.2-18.7,12.7-27c3.5-5.3,7.4-10.3,11.2-15.6
		c-3-3.7-6.1-7.6-9.3-11.5c-3.5,2.8-7,5.6-10.4,8.4c-0.6,0.5-1.2,1.3-1.5,2.1c-15.4,50-30.9,100.1-46.3,150.1
		c-0.1,0.5-0.2,0.9-0.4,1.8C45.4,288.8,84.1,257.8,122.8,226.7z M250.8,8.6c-36.9,29.6-73.4,58.8-109.8,88c2.8,3.5,5.4,6.8,8.1,10.1
		c1-0.5,1.9-1,2.8-1.5c9.2-5.1,18.8-9.6,28.8-13c8.7-2.9,17.5-5.2,26.7-5c6.2,0.1,12.1,1.2,16.9,5.5c2,1.8,3.4,4.1,5.1,6.2
		C236.5,69.2,243.6,39.2,250.8,8.6z M108.4,107.7c2.3,2.8,4.3,5.6,6.6,8.2c2,2.2,2.1,4.6,0.7,6.9c-4.6,8-11.4,13.4-20.3,16.2
		c-2.5,0.8-4.6,0.2-6.3-2.2c-2-2.9-4.4-5.5-6.6-8.4c-5.3,5.8-10.1,11.7-13,18.8c-0.6,1.5-1,3.1-1.2,4.7c-0.5,3.9,1.1,5.9,5,6.3
		c4.9,0.5,9.5-0.9,14-2.8c17.5-7.4,31.9-18.8,43.8-33.5c3.4-4.2,6.4-8.7,8-13.9c2.2-7-0.7-10.3-7.9-9.4
		C122.9,99.8,115.7,103.6,108.4,107.7z M67.9,64.3c-5.8-0.7-19.2,10.2-18.9,15.3C54.5,80.4,68.2,69.1,67.9,64.3z"/>
	<path class="st0" d="M650.9,176c0.2,18.9,0.4,37.6,0.6,56.6c-7.6,0-15.1,0-22.7,0c0-25.2,0-50.4,0-75.8c0.5,0,1.1,0,1.7,0
		c12.8,0,25.7,0,38.5,0c1.3,0,1.9,0.5,2.4,1.6c6.9,15.3,13.9,30.5,20.9,45.8c0.2,0.5,0.5,1.1,0.9,1.8c0.4-0.7,0.6-1.2,0.9-1.8
		c7-15.2,14-30.5,21-45.7c0.6-1.3,1.2-1.7,2.7-1.7c12.5,0.1,25.1,0,37.6,0c0.7,0,1.3,0,2.1,0c0,25.4,0,50.6,0,75.9
		c-7.5,0-15,0-22.6,0c0.2-18.9,0.4-37.7,0.6-56.7c-0.9,0-1.6,0.1-2.4,0c-1.1-0.1-1.7,0.3-2.2,1.3c-9,17.9-18,35.8-26.9,53.7
		c-0.7,1.4-1.4,1.9-3,1.9c-5.2-0.1-10.3-0.1-15.5,0c-1.4,0-2-0.4-2.6-1.6c-8.7-17.4-17.5-34.8-26.2-52.2
		C655,175.7,655,175.7,650.9,176z"/>
	<path class="st0" d="M535.3,232.8c-2.4-0.1-4.9-0.7-7.2-1.5c-7.2-2.3-10.3-7.9-11.5-14.9c-1.4-9-1.3-18.1-1.1-27.1
		c0.2-5.8,0.5-11.6,1.4-17.3c1.6-9.3,6.7-14,16.1-15c8-0.8,16.1-1.2,24.2-1.3c12.7-0.1,25.3,0.2,38,0.5c2.6,0.1,5.3,0.4,7.8,0.9
		c9.6,1.9,14,6.5,15.4,16.2c1.7,11.3,1.3,22.6,0.9,33.9c-0.2,3.9-0.7,7.8-1.5,11.6c-1.4,7.4-6.2,11.8-13.5,13.2
		c-4.5,0.9-9,1.3-13.6,1.5C583,233.7,546,233.4,535.3,232.8z M567.5,175c-6.7,0.3-13.5,0.4-20.2,0.9c-5.2,0.4-7.5,2.5-8,7.6
		c-0.6,5.9-0.8,12-0.7,17.9c0.1,9.2,3,12,12.1,12.3c8.7,0.3,17.4,0.3,26.1,0.3c3.8,0,7.6-0.3,11.3-0.7c4.6-0.5,7.2-2.8,7.8-7.4
		c1.1-7.7,1-15.4-0.3-23.1c-0.8-4.5-3.1-6.6-7.7-6.9C581.1,175.5,574.4,175.3,567.5,175z"/>
	<path class="st0" d="M328.7,232.8c-1.7-0.1-3.3-0.4-5-0.8c-8.2-2-12.4-6.9-13.8-16.1c-1.6-10.9-1.3-21.8-0.9-32.7
		c0.1-3.7,0.5-7.4,1.2-11.1c1.8-9.4,6.6-14.1,16.1-15.1c7.4-0.8,14.9-1.2,22.4-1.2c13.3-0.1,26.5,0.2,39.8,0.5c3,0.1,6,0.5,8.9,1.1
		c8.5,1.7,12.8,6.6,14.3,15.6c1.5,9.3,1.4,18.7,1.1,28c-0.2,5.6-0.5,11.3-1.5,16.8c-1.6,8.9-6.6,13.6-15.6,14.6
		c-7.1,0.8-14.3,1-21.5,1.4C369.9,233.9,339.4,233.3,328.7,232.8z M360.8,214.4c6.8-0.3,13.6-0.4,20.4-1c5.2-0.4,8-3.1,8.2-8.3
		c0.3-6.7,0.3-13.4-0.1-20.1c-0.4-6.3-2.9-8.4-9.2-9.2c-1-0.1-2-0.2-3-0.2c-9.7-0.1-19.4-0.2-29.1-0.1c-2.4,0-4.9,0.2-7.3,0.5
		c-5.2,0.6-7.6,2.6-8,7.8c-0.5,7-0.6,14-0.4,21c0.2,5.3,3,8.2,8.3,8.6C347.3,214,354.1,214.1,360.8,214.4z"/>
	<path class="st0" d="M289.1,203.4c0.6,0.1,1.1,0.2,1.7,0.3c6.4,1.1,9.2,3.5,9.9,10c0.7,6.2,0.5,12.5,0.7,18.9c-7.9,0-15.3,0-23,0
		c0-0.7,0-1.3,0-1.9c-0.1-3.7-0.1-7.3-0.5-11c-0.4-4-2.4-5.7-6.3-6c-2.6-0.2-5.3-0.2-7.9-0.2c-10.4,0-20.8,0-31.1,0
		c-0.6,0-1.2,0-1.9,0c0,6.5,0,12.7,0,19.1c-7.7,0-15.3,0-23,0c0-25.2,0-50.4,0-75.7c0.2,0,0.4-0.1,0.6-0.1
		c25.4,0.1,50.8,0.1,76.1,0.2c3.3,0,6.5,0.6,9.5,2.3c4.8,2.8,7,7,7.6,12.3c0.7,6.5,0.9,12.9,0,19.4c-1.1,7.3-4.4,10.6-11.6,12
		c-0.2,0-0.4,0.1-0.7,0.2C289.1,203.2,289.1,203.3,289.1,203.4z M230.7,175.8c0,6.2,0,12.3,0,18.6c0.5,0,0.9,0,1.3,0
		c10.5,0,21,0,31.5,0c3.4,0,6.8-0.1,10.2-0.4c2.4-0.2,4.1-1.5,4.5-3.9c0.4-2.6,0.6-5.4,0.4-8c-0.3-4.5-2.1-6.1-6.5-6.1
		c-13.5-0.1-27-0.2-40.4-0.2C231.4,175.7,231.1,175.8,230.7,175.8z"/>
	<path class="st0" d="M790.9,174.6c0,3.8,0,7.3,0,11c19.3,0,38.5,0,57.9,0c0,5.6,0,11.1,0,16.7c-19.3,0-38.5,0-57.9,0
		c0,4.1,0,8,0,12.1c20.5,0,40.9,0,61.5,0c0,6.1,0,12.1,0,18.1c-28,0-56,0-84.2,0c0-25.2,0-50.4,0-75.7c27.8,0,55.8,0,83.8,0
		c0,5.9,0,11.7,0,17.7C831.6,174.6,811.3,174.6,790.9,174.6z"/>
	<path class="st0" d="M934.2,232.7c1.8-3.3,3.4-6.4,5-9.4c11.5-21.7,22.9-43.3,34.4-65c0.6-1.2,1.3-1.6,2.6-1.6
		c10.9,0.1,21.7,0,32.6,0c1.1,0,1.8,0.3,2.4,1.4c12.8,24.5,25.6,49,38.4,73.4c0.2,0.3,0.3,0.6,0.5,1.1c-0.7,0-1.2,0.1-1.7,0.1
		c-7.6,0-15.2,0-22.9,0c-1.3,0-1.9-0.4-2.4-1.5c-1.6-3.4-3.4-6.7-5-10.1c-0.5-1-1-1.2-2.1-1.2c-15.8,0-31.6,0-47.3,0
		c-1.1,0-1.7,0.3-2.2,1.3c-1.7,3.5-3.4,7-5.3,10.4c-0.3,0.5-1,1.1-1.6,1.1C951.3,232.7,942.9,232.7,934.2,232.7z M1009,203.2
		c0-0.3,0-0.4,0-0.5c-4.6-9.1-9.3-18.3-13.9-27.4c-0.9-1.8-2.6-0.7-3.9-0.8c-0.6-0.1-1.5,0.6-1.8,1.2c-4.5,8.7-9,17.5-13.4,26.2
		c-0.2,0.3-0.3,0.7-0.5,1.2C986.7,203.2,997.8,203.2,1009,203.2z"/>
	<path class="st1" d="M476.4,176.1c0,18.9,0,37.7,0,56.5c-8.1,0-16,0-24.2,0c0-18.8,0-37.6,0-56.5c-11.3,0-22.5,0-33.7,0
		c0-6.5,0-12.9,0-19.3c30.6,0,61.1,0,91.6,0c0,6.4,0,12.7,0,19.3C498.9,176.1,487.7,176.1,476.4,176.1z"/>
	<path class="st1" d="M914.8,232.6c-8.2,0-16.2,0-24.3,0c0-18.8,0-37.6,0-56.5c-11.3,0-22.4,0-33.7,0c0-6.5,0-12.9,0-19.3
		c30.5,0,61,0,91.6,0c0,6.3,0,12.7,0,19.2c-11.2,0-22.3,0-33.7,0C914.8,195,914.8,213.7,914.8,232.6z"/>
	<path class="st2" d="M1077.8,213.3c18,0,35.8,0,53.8,0c0,6.5,0,12.8,0,19.3c-25.9,0-51.9,0-78,0c0-25.2,0-50.4,0-75.7
		c8,0,16,0,24.2,0C1077.8,175.7,1077.8,194.4,1077.8,213.3z"/>
	<path class="st3" d="M694.5,296.2c2.8,0,5.4,0,8,0c0.3,0,0.9,0.2,1,0.5c0.7,1.4,1.9,1.8,3.3,1.8c2.6,0,5.3,0.1,7.9-0.2
		c2.3-0.2,3.4-1.6,3.5-3.8c0.1-1.4,0-2.8,0-4.8c-2.5,3.9-6.1,4.1-9.6,4c-2.9-0.1-5.9-0.3-8.7-0.8c-3-0.5-5.2-2.5-5.5-5.7
		c-0.3-3.7-0.2-7.5,0.1-11.2c0.3-2.9,2.4-4.7,5.1-5.3c4.5-1.1,9.2-1.2,13.7-0.4c1.8,0.3,3.5,1.7,5.3,2.6c0-0.4,0.1-1.3,0.1-2.3
		c2.7,0,5.4,0,8.1,0c0.1,0.2,0.2,0.3,0.2,0.5c0,8,0.1,15.9-0.1,23.9c-0.1,5.2-2.7,8.3-7.8,9.2c-5.6,1-11.3,1-17,0.2
		C697.2,303.7,694.8,301,694.5,296.2z M710.3,287.1c0,0,0-0.1,0-0.1c0.8,0,1.6,0,2.3,0c5-0.3,6.2-1.8,5.5-6.8c0-0.1,0-0.1,0-0.2
		c-0.2-1.8-1.2-3.1-3.1-3.2c-3.1-0.1-6.2-0.1-9.3,0.1c-1.6,0.1-2.9,1.1-2.9,2.9c-0.1,2.3-0.9,4.8,1.5,6.4c0.6,0.4,1.4,0.6,2.2,0.7
		C707.8,287,709,287,710.3,287.1z"/>
	<path class="st4" d="M405.5,293.9c-2.8,0-5.4,0-8.1,0c-0.1-1-0.1-1.9-0.2-3.4c-2.6,4-6.3,4-9.8,4.1c-2.3,0.1-4.6,0-6.8-0.3
		c-5.1-0.6-7.4-2.8-7.8-7.9c-0.3-2.8-0.2-5.8,0.1-8.6c0.6-5,2.9-7.3,7.9-7.7c3.4-0.3,6.8-0.2,10.2,0c2.4,0.1,4.3,1.3,5.8,3.3
		c0-4.1,0-8.3,0-12.5c3,0,5.8,0,8.7,0C405.5,271.8,405.5,282.8,405.5,293.9z M389.4,276.3c-6.7,0.1-8.8,0.3-7.8,8.4
		c0.2,1.6,1.2,2.7,2.7,2.9c1.9,0.3,3.8,0.4,5.7,0.4c6.3-0.2,7.5-0.9,6.7-8.2c-0.2-1.6-1.2-2.6-2.7-2.9
		C392.5,276.5,390.9,276.4,389.4,276.3z"/>
	<path class="st3" d="M523.6,273.7c0-4.5,0-8.7,0-12.9c3,0,5.8,0,8.7,0c0,11,0,22,0,33.1c-2.6,0-5.3,0-8.1,0
		c-0.1-0.9-0.1-1.8-0.2-2.8c-5.8,5.3-12.4,3.6-18.9,2.7c-3.3-0.5-5.3-3-5.5-6.3c-0.2-3.5-0.3-6.9,0-10.4c0.3-4,2.5-6.4,6.5-6.8
		c3.9-0.4,7.9-0.4,11.8-0.3C520.5,270.1,521.4,271,523.6,273.7z M516,276.3c0,0,0,0.1,0,0.1c-0.3,0-0.6,0-0.9,0
		c-6.2,0.1-7.5,1-6.8,8c0.2,1.8,1.1,2.9,2.9,3.2c1.9,0.2,3.8,0.4,5.7,0.3c6.1-0.3,7.4-0.7,6.6-8.1c-0.2-1.7-1.2-2.7-2.9-3
		C519.1,276.5,517.6,276.4,516,276.3z"/>
	<path class="st3" d="M596.6,270.4c2.2,0,4.3,0,6.4,0c0.5,0,1.1,0,1.7,0c0,1.1,0,2,0,2.9c0.3,0,0.4,0.1,0.5,0.1
		c1.8-2.7,4.6-3.5,7.7-3.5c3.2,0,6.5,0,9.7,0.4c4.3,0.6,6.5,2.9,6.8,7.2c0.2,3.3,0.2,6.7-0.1,10c-0.3,3.7-2.3,5.9-6,6.3
		c-4.1,0.4-8.2,0.4-12.4,0.3c-2.2,0-3.9-1.3-5.5-3.6c0,4.7,0,8.8,0,13c-3,0-5.9,0-8.8,0C596.6,292.7,596.6,281.7,596.6,270.4z
		 M612.8,288.1c0-0.1,0-0.1,0-0.2c0.9,0,1.8,0,2.7,0c4.2-0.2,5.1-1.2,5.2-5.3c0-0.7,0-1.4,0-2.2c-0.2-2.4-1-3.4-3.4-3.7
		c-1.9-0.2-3.8-0.3-5.7-0.3c-5.4,0.2-6.7,0.8-6.4,7.3c0,0.3,0.1,0.6,0.2,0.9c0.2,1.6,1.1,2.5,2.6,2.8
		C609.6,287.8,611.2,287.9,612.8,288.1z"/>
	<path class="st3" d="M369.6,286.5c0,3.8-1.8,6.2-5.5,7.2c-2.9,0.8-4.5,3.1-6.2,5.2c-1,1.2-0.1,2.6,1.5,2.9c0.5,0.1,1.1,0.1,1.6,0.1
		c0.5,0,0.9,0,1.5,0c0,1.3,0,2.5,0,4c-2.1-0.1-4.2-0.1-6.3-0.5c-1.6-0.2-2.8-1.2-3-2.9c-0.2-2-0.5-4.1,1.4-5.7
		c0.7-0.6,1.5-1.2,2.5-2c-0.8-0.1-1.2-0.1-1.6-0.1c-3.5-0.2-7-0.2-10.4-0.6c-4.3-0.6-6.4-2.9-6.7-7.2c-0.2-3-0.2-6.1,0-9.1
		c0.3-4.3,2.5-7,6.8-7.3c5.9-0.4,11.8-0.4,17.7,0c3.8,0.2,5.9,2.5,6.6,6.3c0.4,2.4,0.4,4.8,0.5,7.5c-7.9,0-15.4,0-22.9,0
		c-0.4,3,0.3,4.3,3,4.5c2.8,0.2,5.6,0.1,8.4,0c0.6,0,1.5-0.4,1.7-0.8c0.6-1.7,2-1.4,3.2-1.4C365.6,286.5,367.6,286.5,369.6,286.5z
		 M361,279.2c0.2-1.7-0.2-3.3-1.9-3.4c-3.3-0.2-6.7-0.2-10,0c-1.7,0.1-2.2,1.5-1.9,3.4C351.8,279.2,356.4,279.2,361,279.2z"/>
	<path class="st4" d="M483.6,294c-2.8,0-5.4,0-8.3,0c0-1,0-2,0-2.9c-2.1,3-5.2,3.4-8.4,3.5c-2.9,0-5.9,0.1-8.8-0.2
		c-4.1-0.3-5.8-2.2-6.1-6.2c-0.3-4.8,1.3-7.9,5.2-8.4c4.8-0.6,9.7-0.5,14.5-0.5c1,0,1.9,0.8,2.9,1.2c1.1-2.9,0-4.8-3.1-5
		c-2.4-0.1-4.9-0.1-7.4,0.1c-0.8,0.1-1.5,0.9-2.2,1.4c-0.3,0.2-0.7,0.7-1.1,0.7c-2.6,0.1-5.1,0-7.7,0c-0.1-3.4,1.4-5.8,4.5-6.8
		c1.6-0.5,3.4-0.9,5.1-0.9c4.5-0.1,9-0.2,13.5-0.1c4.6,0.1,7.1,2.4,7.3,7C483.7,282.6,483.6,288.2,483.6,294z M467.7,283.9
		c-1.4,0.1-3.4,0.2-5.3,0.6c-0.7,0.2-1.6,1.3-1.6,2c0,0.7,0.9,2,1.5,2c3.6,0.1,7.1,0.1,10.7-0.2c0.6,0,1.6-1.4,1.6-2.1
		c-0.1-0.7-1.1-1.7-1.9-1.9C471.4,283.9,469.8,284,467.7,283.9z"/>
	<path class="st3" d="M274.8,293.9c-2.9,0-5.6,0-8.4,0c0-1,0-2,0-2.9c-2.3,3.4-5.7,3.5-9.1,3.5c-3.2,0-6.3-0.1-9.5-0.5
		c-2.7-0.3-4.2-2.1-4.5-4.9c0-0.4-0.1-0.7-0.1-1.1c-0.4-5.2,1.9-8.2,7-8.7c3.7-0.4,7.5-0.3,11.3-0.2c1.5,0,2.9,0.8,4.4,1.2
		c1-3-0.1-4.7-3.4-4.8c-2.2-0.1-4.4,0-6.6,0c-1.2,0-2.4,0.2-2.8,1.7c-0.1,0.3-0.6,0.5-1,0.5c-2.6,0-5.1,0-7.7,0
		c-0.1-3.7,1.8-6.4,5.4-7.1c6.4-1.3,12.9-1.2,19.3-0.5c3.3,0.4,5.2,2.5,5.6,5.9c0.2,1.2,0.2,2.4,0.2,3.6
		C274.8,284.4,274.8,289.1,274.8,293.9z M259,283.9c-1.4,0.1-3.4,0.2-5.4,0.6c-0.7,0.1-1.4,1.3-1.5,2c0,0.6,0.9,1.9,1.4,1.9
		c3.6,0.1,7.2,0.1,10.9-0.1c0.6,0,1.6-1.5,1.5-2.2c-0.1-0.7-1.1-1.7-1.9-1.9C262.5,283.9,261,284,259,283.9z"/>
	<path class="st4" d="M579.9,293.9c-2.7,0-5.4,0-8.2,0c0-1,0-1.9,0-2.9c-2.2,3.2-5.5,3.4-8.8,3.5c-2.7,0-5.4,0.1-8.1-0.2
		c-4.2-0.3-6-2.2-6.3-6.2c-0.3-4.8,1.3-7.9,5.3-8.4c4.7-0.6,9.5-0.5,14.3-0.5c1,0,2,0.8,3,1.3c0.7-3.8-0.1-4.9-3.8-5.1
		c-2.3-0.1-4.6-0.1-6.8,0.2c-0.8,0.1-1.5,0.9-2.2,1.4c-0.4,0.2-0.7,0.7-1.1,0.7c-2.6,0.1-5.1,0-7.7,0c-0.2-3.7,1.8-6.6,5.5-7.1
		c5-0.6,10-0.7,15-0.9c1.5-0.1,3,0.1,4.5,0.4c2.9,0.6,5.1,2.5,5.2,5.4C580.1,281.7,579.9,287.8,579.9,293.9z M564.2,289.2
		c1.6-0.2,3.6-0.3,5.5-0.9c0.7-0.2,1.5-1.4,1.5-2.1c0-0.7-1.1-1.9-1.7-1.9c-3.5-0.1-7,0-10.5,0.2c-1.1,0.1-2,1-1.6,2.2
		c0.2,0.8,1,1.7,1.7,1.9C560.6,289,562.3,289,564.2,289.2z"/>
	<path class="st3" d="M783,294c0-1.1,0-2,0-3.1c-0.3,0.2-0.5,0.2-0.6,0.4c-1.2,2-3.2,3-5.4,3.1c-3.6,0.1-7.3,0.2-10.9,0
		c-4.2-0.2-6.1-2.3-6.3-6.3c-0.3-4.7,1.5-7.8,5.6-8.3c4.6-0.5,9.3-0.4,14-0.4c1.1,0,2.1,0.8,3.2,1.3c0.7-3.7-0.1-4.9-3.9-5.1
		c-1.9-0.1-3.8,0-5.8,0c-1.4,0-2.8,0-3.3,1.8c-0.1,0.2-0.7,0.4-1,0.4c-2.5,0-5,0-7.5,0c-0.4-3.3,1.6-6.2,5.1-7.1
		c1.4-0.4,2.9-0.7,4.4-0.7c4.6-0.1,9.2-0.2,13.8,0c4.4,0.2,6.9,2.6,7,7c0.2,5.6,0,11.2,0,16.9C788.5,294,785.9,294,783,294z
		 M775.5,283.9c-1.4,0.1-3.3,0.2-5.2,0.5c-1.1,0.2-1.8,0.8-1.8,2.1c0,1.3,0.7,2.1,1.8,2.1c3.4,0.1,6.9,0,10.3-0.1
		c1.1-0.1,2-0.9,1.9-2.2c-0.1-1.3-0.9-1.9-2.1-2C779,284.1,777.5,284,775.5,283.9z"/>
	<path class="st3" d="M648.1,294.8c-2.4-0.2-5.7-0.3-9-0.7c-4.1-0.6-6.2-2.9-6.5-6.9c-0.2-3.2-0.2-6.5,0-9.7
		c0.2-3.7,2.2-6.1,5.9-6.7c7-1.3,14-1.3,20.9,0c3.7,0.7,5.6,2.7,5.9,6.5c0.3,3.6,0.2,7.2-0.1,10.8c-0.3,3.4-2.6,5.4-6.3,6.2
		c-0.6,0.1-1.3,0.3-2,0.3C654.3,294.5,651.6,294.6,648.1,294.8z M649.1,288.1c0,0,0-0.1,0-0.1c0.3,0,0.6,0,0.9,0
		c6.1-0.1,7.3-1.4,6.7-7.5c-0.2-2.4-1-3.4-3.4-3.7c-1.7-0.2-3.4-0.3-5.2-0.3c-6.2,0-7.5,1.5-7,7.6c0.2,2.2,0.9,3.1,3.1,3.5
		C645.9,287.9,647.5,287.9,649.1,288.1z"/>
	<path class="st5" d="M239.8,294c-2.8,0-5.6,0-8.6,0c0-1.1,0-2.1,0-3.2c0-3.4,0-6.8-0.1-10.3c-0.1-2.3-1-3.5-3.3-3.7
		c-2.1-0.2-4.3-0.3-6.4-0.1c-3,0.3-4.2,1.7-4.3,4.7c-0.1,3.5-0.1,7-0.1,10.4c0,0.6,0,1.3,0,2.1c-3,0-5.8,0-8.8,0
		c0-7.8,0-15.6,0-23.4c2.7,0,5.4,0,8.2,0c0,1.2,0,2.2,0,3.2c0.2,0,0.4,0.1,0.4,0c1.9-2.9,4.8-3.9,8-3.9c2.6,0,5.2,0,7.7,0.4
		c4.2,0.7,7,3.5,7.2,7.8C240,283.3,239.8,288.5,239.8,294z"/>
	<path class="st4" d="M321.6,287.9c4.7,0,9.4,0,14.2,0c0,2,0,3.9,0,6c-9.4,0-18.8,0-28.4,0c0-1.8-0.1-3.6,0-5.4c0-0.5,0.5-1,1-1.4
		c4-3.1,8.1-6.2,12.1-9.3c0.5-0.4,0.9-0.7,1.7-1.4c-4.8,0-9.2,0-13.7,0c0-2.1,0-3.9,0-6c8.9,0,17.7,0,26.9,0c0,2,0.1,4.1-0.1,6.2
		c0,0.5-0.7,0.9-1.1,1.3c-3.8,2.8-7.6,5.6-11.4,8.5c-0.5,0.3-0.9,0.7-1.4,1.1C321.5,287.7,321.6,287.8,321.6,287.9z"/>
	<path class="st4" d="M436.5,270.5c0.1,0.3,0.1,0.4,0.1,0.6c0.2,6,0.2,6-4.7,9.6c-2.7,2-5.4,4-8.1,6c-0.4,0.3-0.8,0.7-1.5,1.2
		c5.1,0,9.8,0,14.6,0c0,2.1,0,4,0,6.1c-9.4,0-18.8,0-28.4,0c0-1.8-0.1-3.7,0.1-5.5c0-0.5,0.7-1.1,1.2-1.4c4.4-3.4,8.9-6.8,13.8-10.5
		c-4.9,0-9.3,0-13.8,0c0-2.1,0-4,0-6C418.6,270.5,427.5,270.5,436.5,270.5z"/>
	<path class="st6" d="M815.1,276.8c-2.8,0-5.6,0-8.5,0c0,5.7,0,11.4,0,17.1c-3,0-5.8,0-8.8,0c0-5.6,0-11.3,0-17.1c-1.5,0-3,0-4.5,0
		c0-2.2,0-4.2,0-6.4c1.4,0,2.7,0,4.3,0c0.1-1.3,0.2-2.5,0.4-3.6c0.4-3.4,2.3-5.8,5.7-6.2c3.5-0.5,7-0.4,10.7-0.6c0,2.2,0,4,0,6.2
		c-1.5,0-2.9-0.1-4.4,0c-2.7,0.2-3.4,1.2-3.2,4.2c1.3,0,2.7,0,4.1,0c1.4,0,2.7,0,4.2,0C815.1,272.5,815.1,274.5,815.1,276.8z"/>
	<path class="st5" d="M731,270.5c2.7,0,5.3,0,8.1,0c0.1,1.1,0.1,2.2,0.2,3.9c3-5,7.5-4.7,11.9-4.4c4.1,0.3,6.1,2.2,6.7,6.2
		c0.2,1.5,0.2,3,0.3,4.6c-2.8,0-5.5,0-8.2,0c0,0-0.2-0.1-0.2-0.2c-0.5-3.4-1.4-4.2-4.8-4.1c-3.3,0.1-5.1,1.5-5.2,4.5
		c-0.2,3.7-0.1,7.3-0.2,11c0,0.6,0,1.3,0,2c-3,0-5.8,0-8.7,0C731,286.2,731,278.4,731,270.5z"/>
	<path class="st4" d="M297.8,280.8c-0.8-4.2-4.4-5.7-8.2-3.6c-1.5,0.9-2,2.3-2.1,4c-0.1,3.6-0.1,7.2-0.1,10.8c0,0.6,0,1.3,0,2
		c-3,0-5.8,0-8.7,0c0-7.8,0-15.6,0-23.4c2.6,0,5.3,0,8.1,0c0.1,1.1,0.1,2.2,0.2,3.7c3.4-5.2,8.2-4.7,12.9-4.1
		c3.5,0.5,5.1,2.3,5.7,5.8c0.3,1.6,0.3,3.2,0.4,4.9C303.2,280.8,300.5,280.8,297.8,280.8z"/>
	<path class="st7" d="M677.6,293.9c-2.9,0-5.7,0-8.6,0c0-11,0-22,0-33.1c2.8,0,5.7,0,8.6,0C677.6,271.8,677.6,282.8,677.6,293.9z"/>
	<path class="st7" d="M545.2,260.8c0,11.1,0,22,0,33.1c-2.9,0-5.7,0-8.7,0c0-11,0-22,0-33.1C539.4,260.8,542.2,260.8,545.2,260.8z"
		/>
	<path class="st7" d="M826.1,270.5c0,7.9,0,15.6,0,23.4c-2.9,0-5.7,0-8.6,0c0-7.8,0-15.6,0-23.4
		C820.4,270.5,823.2,270.5,826.1,270.5z"/>
	<path class="st7" d="M448.7,294c-2.9,0-5.7,0-8.6,0c0-7.8,0-15.6,0-23.4c2.8,0,5.7,0,8.6,0C448.7,278.3,448.7,286,448.7,294z"/>
	<path class="st8" d="M838.8,294c-2.9,0-5.6,0-8.5,0c0-7.8,0-15.6,0-23.5c2.8,0,5.6,0,8.5,0C838.8,278.3,838.8,286.1,838.8,294z"/>
	<path class="st8" d="M690.4,293.9c-2.9,0-5.7,0-8.6,0c0-7.8,0-15.6,0-23.4c2.9,0,5.7,0,8.6,0C690.4,278.3,690.4,286.1,690.4,293.9z
		"/>
	<path class="st9" d="M817.4,267.3c0-2.2,0-4.3,0-6.5c2.9,0,5.8,0,8.7,0c0,2.2,0,4.3,0,6.5C823.2,267.3,820.4,267.3,817.4,267.3z"/>
	<path class="st9" d="M440,260.8c2.9,0,5.7,0,8.6,0c0,2.1,0,4.3,0,6.5c-2.8,0-5.7,0-8.6,0C440,265.2,440,263.1,440,260.8z"/>
	<path class="st7" d="M838.9,260.8c0,2.2,0,4.3,0,6.5c-2.9,0-5.6,0-8.6,0c0-2.1,0-4.2,0-6.5C833.1,260.8,835.9,260.8,838.9,260.8z"
		/>
	<path class="st7" d="M690.4,260.8c0,2.2,0,4.3,0,6.5c-2.9,0-5.7,0-8.6,0c0-2.1,0-4.2,0-6.5C684.7,260.8,687.5,260.8,690.4,260.8z"
		/>
</g>
</svg>
