<?xml version="1.0" encoding="UTF-8"?>
<svg width="393px" height="112px" viewBox="0 0 393 112" version="1.1" xmlns="http://www.w3.org/2000/svg" xmlns:xlink="http://www.w3.org/1999/xlink">
    <!-- Generator: Sketch 58 (84663) - https://sketch.com -->
    <title>logo/ logo_cosen_dark</title>
    <desc>Created with Sketch.</desc>
    <g id="logo/-logo_cosen_dark" stroke="none" stroke-width="1" fill="none" fill-rule="evenodd">
        <g id="logo_cosen" fill-rule="nonzero">
            <path d="M392.2,51.9 C389.6,34.2 375.3,21.5 358.6,21.9 C340.9,22.4 326.8,36.2 325.8,54 C325,68.2 336.1,84.2 348.2,86.2 C348.2,76.3 348.2,66.5 348.2,56.6 C348.2,49.4 352.6,44.4 359,44.3 C364.4,44.2 370.4,49.8 370.1,56.5 C369.7,66.3 370,76.2 370,86.4 C383.6,83 394.3,66.2 392.2,51.9 Z" id="Path" fill="#030303"></path>
            <path d="M34.4,66 C32.3,65.9 29.9,65.3 28.1,64.1 C24,61.5 22.5,56.7 23.9,52.3 C25.3,47.6 29.1,44.5 34.1,44.4 C39.6,44.3 45,44.4 49.9,44.4 C52.7,36.7 55.3,29.4 57.8,22.5 C48.6,22.5 39.2,21.8 29.9,22.7 C13.7,24.1 1.5,37.8 1,54.6 C0.6,71 12,84.3 25.9,87.4 C29,88.1 32.3,88.5 35.5,88.6 C43,88.8 50.5,88.7 57.9,88.7 C55.2,81.1 52.6,73.8 49.9,66.2 C45.1,66.1 39.7,66.3 34.4,66 Z" id="Path" fill="#030303"></path>
            <path d="M223.1,55.7 C219.7,64.8 217.8,66.1 208,66.1 C199,66.1 190,66.1 181,66.1 C183.4,78.2 197.8,90.1 215,88.5 C232.1,86.9 245.3,72.3 244.7,55.7 C237.5,55.7 230.3,55.7 223.1,55.7 Z" id="Path" fill="#030303"></path>
            <path d="M213.4,44.4 C223.1,44.4 232.9,44.4 243,44.4 C238,28.5 220.8,19.4 204.4,22.9 C188.8,26.3 177.8,42.1 179.1,54.9 C186.4,54.9 193.7,54.9 200.9,54.9 C202.3,47.6 206.2,44.4 213.4,44.4 Z" id="Path" fill="#030303"></path>
            <path d="M293.7,55.2 C294,55.2 294.2,55.2 294.5,55.3 C302.7,55.3 310.9,55.3 319,55.3 C319.2,37.3 305.9,23.2 286.9,22.2 C270.3,21.4 255.3,33.6 253.1,51.6 C250.9,69.6 262.6,85 281.6,88.3 C296.2,90.8 312.5,82 317.2,66.2 C306.6,66.2 296,66.3 285.4,66.2 C281,66.2 276.7,62.6 275.6,58.3 C274.4,53.3 276.5,48.4 281,45.9 C285.3,43.5 290.3,44.3 293.7,47.8 C295.9,50.1 296.5,52.4 294.2,55 C294,54.9 293.9,55 293.7,55.2 Z" id="Path" fill="#030303"></path>
            <circle id="Oval" fill="#030303" cx="116.9" cy="55.7" r="55.7"></circle>
            <circle id="Oval" fill="#E46303" cx="116.9" cy="55.7" r="38.2"></circle>
        </g>
    </g>
</svg>